<?xml version="1.0" encoding="utf-8"?>
<!-- Generator: Adobe Illustrator 17.1.0, SVG Export Plug-In . SVG Version: 6.00 Build 0)  -->
<!DOCTYPE svg PUBLIC "-//W3C//DTD SVG 1.1 Tiny//EN" "http://www.w3.org/Graphics/SVG/1.1/DTD/svg11-tiny.dtd">
<svg version="1.1" baseProfile="tiny" id="Layer_1" xmlns="http://www.w3.org/2000/svg" xmlns:xlink="http://www.w3.org/1999/xlink"
	 x="0px" y="0px" viewBox="0 0 960 560" xml:space="preserve">
<g>
	<g>
		<ellipse fill="#41326B" cx="266.095" cy="204.778" rx="13.974" ry="14.369"/>
		<path fill="#41326B" d="M301.115,239.072c-0.014-1.984-0.462-4.255-1.501-5.89c-3.849-6.059-9.824-9.611-16.957-9.867
			c-5.471-0.197-10.656-0.163-16.656-0.125v-0.008c-6,0.01-10.603,0.03-16.018,0.017c-3.65-0.009-6.533,1.403-8.459,4.405
			c-1.647,2.567-2.952,5.375-4.039,8.229c-1.224,3.212-1.961,6.598-2.941,9.904c-3.168,10.687-6.222,21.406-9.556,32.041
			c-1.302,4.151-0.218,7.657,3.433,8.966c3.716,1.332,7.017-0.496,8.355-4.694c1.156-3.63,2.243-7.283,3.366-10.924
			c2.771-8.987,5.547-17.974,8.401-27.223c1.071,0.479,1.919,0.964,2.863,1.386C244.762,267.229,238.212,289,231.545,311
			c6.461,0,12.455,0,17.455,0c0,1,0,2.177,0,3.237c0,15.429,0.617,30.859,0.671,46.288c0.005,1.498,0.5,3.134,1.119,4.462
			c1.347,2.889,4.753,4.161,7.998,3.426c3.162-0.716,5.291-3.402,5.305-7.033c0.059-15.791,0.126-31.535,0.164-47.326
			c0.002-0.976,0.04-2.053,0.04-3.053c0.769,0,1.447,0,2.157,0h1.855c0.025,5,0.056,10.637,0.068,15.939
			c0.024,11.071-0.047,22.16,0.043,33.23c0.056,6.904,6.561,10.94,12.384,7.744c3.495-1.918,3.306-5.182,3.304-8.92
			c-0.016-35.824-1.11-71.644-1.11-107.469c0-1.054,0-2.108,0-3.111c4-0.789,3.979,0.302,3.971,2.199
			c-0.05,12.331,0.516,24.663,0.528,36.994c0.005,4.762,2.683,7.505,6.809,7.532c4.125,0.027,6.726-2.716,6.731-7.461
			C301.056,271.476,301.232,255.274,301.115,239.072z"/>
	</g>
	<g>
		<path fill="#41326B" d="M338.85,274.957c-0.72-2.16-1.2-3.48-1.2-10.32v-13.199c0-7.8-2.64-10.68-8.64-10.68h-4.56v34.199h-13.199
			V190.96h19.919c13.68,0,19.56,6.36,19.56,19.319v6.6c0,8.64-2.76,14.279-8.64,17.039c6.6,2.76,8.76,9.12,8.76,17.879v12.959
			c0,4.08,0.12,7.08,1.439,10.2H338.85z M324.451,202.959v25.799h5.16c4.92,0,7.919-2.16,7.919-8.879v-8.28c0-6-2.04-8.64-6.72-8.64
			H324.451z"/>
		<path fill="#41326B" d="M372.69,226.358h18.12v12h-18.12v24.599h22.799v12h-35.999V190.96h35.999v12H372.69V226.358z"/>
		<path fill="#41326B" d="M416.85,228.278h17.039v12H416.85v34.679h-13.2V190.96h34.918v12H416.85V228.278z"/>
		<path fill="#41326B" d="M457.529,190.96v64.797c0,6,2.641,8.16,6.84,8.16c4.2,0,6.84-2.16,6.84-8.16V190.96h12.479v63.958
			c0,13.439-6.72,21.119-19.679,21.119c-12.96,0-19.68-7.68-19.68-21.119V190.96H457.529z"/>
		<path fill="#41326B" d="M512.488,228.158h18.479v26.639c0,13.439-6.72,21.119-19.679,21.119c-12.96,0-19.68-7.68-19.68-21.119
			v-43.678c0-13.439,6.72-21.119,19.68-21.119c12.959,0,19.679,7.68,19.679,21.119v8.16h-12.479v-9c0-6-2.64-8.28-6.84-8.28
			c-4.199,0-6.84,2.28-6.84,8.28v45.358c0,6,2.641,8.16,6.84,8.16c4.2,0,6.84-2.16,6.84-8.16v-15.479h-6V228.158z"/>
		<path fill="#41326B" d="M552.688,226.358h18.119v12h-18.119v24.599h22.799v12h-35.998V190.96h35.998v12h-22.799V226.358z"/>
		<path fill="#41326B" d="M338.85,368.957c-0.72-2.16-1.2-3.479-1.2-10.319v-13.2c0-7.799-2.64-10.679-8.64-10.679h-4.56v34.199
			h-13.199V284.96h19.919c13.68,0,19.56,6.36,19.56,19.319v6.6c0,8.64-2.76,14.279-8.64,17.04c6.6,2.76,8.76,9.119,8.76,17.879
			v12.96c0,4.079,0.12,7.079,1.439,10.199H338.85z M324.451,296.96v25.799h5.16c4.92,0,7.919-2.16,7.919-8.879v-8.28
			c0-6-2.04-8.64-6.72-8.64H324.451z"/>
		<path fill="#41326B" d="M372.69,320.359h18.12v12h-18.12v24.599h22.799v12h-35.999V284.96h35.999v12H372.69V320.359z"/>
		<path fill="#41326B" d="M421.41,284c12.839,0,19.439,7.68,19.439,21.119v2.64H428.37v-3.48c0-6-2.4-8.28-6.6-8.28
			s-6.6,2.28-6.6,8.28c0,17.279,25.799,20.519,25.799,44.518c0,13.439-6.72,21.119-19.679,21.119s-19.679-7.68-19.679-21.119v-5.16
			h12.479v6c0,6,2.64,8.16,6.84,8.16s6.84-2.16,6.84-8.16c0-17.279-25.799-20.519-25.799-44.518
			C401.97,291.68,408.57,284,421.41,284z"/>
		<path fill="#41326B" d="M444.69,284.96h40.799v12h-13.8v71.997H458.49V296.96h-13.8V284.96z"/>
		<path fill="#41326B" d="M518.847,368.957c-0.72-2.16-1.2-3.479-1.2-10.319v-13.2c0-7.799-2.64-10.679-8.639-10.679h-4.561v34.199
			h-13.199V284.96h19.919c13.68,0,19.56,6.36,19.56,19.319v6.6c0,8.64-2.76,14.279-8.64,17.04c6.6,2.76,8.76,9.119,8.76,17.879
			v12.96c0,4.079,0.12,7.079,1.439,10.199H518.847z M504.448,296.96v25.799h5.16c4.92,0,7.92-2.16,7.92-8.879v-8.28
			c0-6-2.04-8.64-6.72-8.64H504.448z"/>
		<path fill="#41326B" d="M538.408,305.12c0-13.439,7.08-21.119,20.039-21.119c12.96,0,20.039,7.68,20.039,21.119v43.678
			c0,13.439-7.079,21.119-20.039,21.119c-12.959,0-20.039-7.68-20.039-21.119V305.12z M551.607,349.638c0,6,2.641,8.28,6.84,8.28
			c4.2,0,6.84-2.28,6.84-8.28V304.28c0-6-2.64-8.28-6.84-8.28c-4.199,0-6.84,2.28-6.84,8.28V349.638z"/>
		<path fill="#41326B" d="M585.927,305.12c0-13.439,7.08-21.119,20.039-21.119c12.96,0,20.039,7.68,20.039,21.119v43.678
			c0,13.439-7.079,21.119-20.039,21.119c-12.959,0-20.039-7.68-20.039-21.119V305.12z M599.126,349.638c0,6,2.641,8.28,6.84,8.28
			c4.2,0,6.84-2.28,6.84-8.28V304.28c0-6-2.64-8.28-6.84-8.28c-4.199,0-6.84,2.28-6.84,8.28V349.638z"/>
		<path fill="#41326B" d="M662.486,344.598l8.999-59.638h18.359v83.997h-12.479V308.72l-9.119,60.237h-12.479l-9.84-59.397v59.397
			h-11.52V284.96h18.359L662.486,344.598z"/>
		<path fill="#41326B" d="M717.203,284c12.84,0,19.439,7.68,19.439,21.119v2.64h-12.479v-3.48c0-6-2.399-8.28-6.6-8.28
			s-6.6,2.28-6.6,8.28c0,17.279,25.799,20.519,25.799,44.518c0,13.439-6.72,21.119-19.679,21.119c-12.96,0-19.68-7.68-19.68-21.119
			v-5.16h12.479v6c0,6,2.64,8.16,6.84,8.16s6.84-2.16,6.84-8.16c0-17.279-25.799-20.519-25.799-44.518
			C697.765,291.68,704.365,284,717.203,284z"/>
	</g>
</g>
</svg>
