<?xml version="1.0" encoding="utf-8"?>
<!-- Generator: Adobe Illustrator 17.1.0, SVG Export Plug-In . SVG Version: 6.00 Build 0)  -->
<!DOCTYPE svg PUBLIC "-//W3C//DTD SVG 1.1 Tiny//EN" "http://www.w3.org/Graphics/SVG/1.1/DTD/svg11-tiny.dtd">
<svg version="1.1" baseProfile="tiny" id="Layer_1" xmlns="http://www.w3.org/2000/svg" xmlns:xlink="http://www.w3.org/1999/xlink"
	 x="0px" y="0px" viewBox="0 0 960 560" xml:space="preserve">
<path fill="#41326B" d="M753,374.707c0,5.685-4.586,10.293-10.244,10.293H217.244c-5.658,0-10.244-4.608-10.244-10.293V184.293
	c0-5.684,4.586-10.293,10.244-10.293h525.512c5.658,0,10.244,4.608,10.244,10.293V374.707z"/>
<g>
	<g>
		<ellipse fill="#FFFFFF" cx="266.644" cy="204.821" rx="13.974" ry="14.369"/>
		<path fill="#FFFFFF" d="M301.663,239.115c-0.014-1.984-0.462-4.255-1.501-5.89c-3.849-6.059-9.598-9.611-16.732-9.867
			c-5.471-0.197-10.431-0.163-16.431-0.125v-0.008c-6,0.01-10.829,0.03-16.244,0.017c-3.65-0.009-6.645,1.403-8.572,4.405
			c-1.647,2.567-3.009,5.375-4.096,8.229c-1.224,3.212-1.989,6.598-2.969,9.904c-3.168,10.687-6.236,21.406-9.57,32.041
			c-1.302,4.151-0.225,7.657,3.426,8.966c3.716,1.332,7.014-0.496,8.351-4.694c1.156-3.63,2.241-7.283,3.364-10.924
			c2.771-8.987,5.546-17.974,8.4-27.223c1.071,0.479,1.919,0.943,2.863,1.365c-6.641,21.941-13.192,43.69-19.859,65.69
			c6.461,0,12.906,0,17.906,0c0,1,0,2.22,0,3.28c0,15.429,0.392,30.859,0.446,46.288c0.005,1.498,0.387,3.134,1.007,4.462
			c1.347,2.889,4.697,4.161,7.942,3.426c3.162-0.716,5.263-3.402,5.277-7.033c0.059-15.791,0.112-31.556,0.15-47.348
			c0.002-0.976,0.026-2.075,0.026-3.075c0.769,0,1.447,0,2.157,0h1.855c0.025,5,0.056,10.658,0.068,15.96
			c0.024,11.071-0.047,22.17,0.043,33.241c0.056,6.904,6.561,10.945,12.384,7.749c3.495-1.918,3.531-5.18,3.53-8.917
			C284.868,323.209,284,287.392,284,251.568c0-1.054,0-2.108,0-3.111c4-0.789,3.753,0.302,3.745,2.199
			c-0.05,12.331,0.404,24.663,0.415,36.994c0.005,4.762,2.627,7.505,6.753,7.532c4.125,0.027,6.698-2.716,6.703-7.461
			C301.633,271.519,301.781,255.317,301.663,239.115z"/>
	</g>
	<g>
		<path fill="#FFFFFF" d="M339.398,275c-0.72-2.16-1.2-3.48-1.2-10.32V251.48c0-7.8-2.64-10.68-8.64-10.68h-4.56V275H311.8v-83.997
			h19.919c13.68,0,19.56,6.36,19.56,19.319v6.6c0,8.64-2.76,14.279-8.64,17.039c6.6,2.76,8.76,9.12,8.76,17.879V264.8
			c0,4.08,0.12,7.08,1.439,10.2H339.398z M324.999,203.002v25.799h5.16c4.92,0,7.919-2.16,7.919-8.879v-8.28
			c0-6-2.04-8.64-6.72-8.64H324.999z"/>
		<path fill="#FFFFFF" d="M373.238,226.401h18.12v12h-18.12V263h22.799v12h-35.999v-83.997h35.999v12h-22.799V226.401z"/>
		<path fill="#FFFFFF" d="M417.398,228.321h17.039v12h-17.039V275h-13.2v-83.997h34.918v12h-21.719V228.321z"/>
		<path fill="#FFFFFF" d="M458.077,191.003V255.8c0,6,2.641,8.16,6.84,8.16c4.2,0,6.84-2.16,6.84-8.16v-64.797h12.479v63.958
			c0,13.439-6.72,21.119-19.679,21.119c-12.96,0-19.68-7.68-19.68-21.119v-63.958H458.077z"/>
		<path fill="#FFFFFF" d="M513.036,228.201h18.479v26.639c0,13.439-6.72,21.119-19.679,21.119c-12.96,0-19.68-7.68-19.68-21.119
			v-43.678c0-13.439,6.72-21.119,19.68-21.119c12.959,0,19.679,7.68,19.679,21.119v8.16h-12.479v-9c0-6-2.64-8.28-6.84-8.28
			c-4.199,0-6.84,2.28-6.84,8.28v45.358c0,6,2.641,8.16,6.84,8.16c4.2,0,6.84-2.16,6.84-8.16v-15.479h-6V228.201z"/>
		<path fill="#FFFFFF" d="M553.236,226.401h18.119v12h-18.119V263h22.799v12h-35.998v-83.997h35.998v12h-22.799V226.401z"/>
		<path fill="#FFFFFF" d="M339.398,369c-0.72-2.16-1.2-3.479-1.2-10.319v-13.2c0-7.799-2.64-10.679-8.64-10.679h-4.56V369H311.8
			v-83.997h19.919c13.68,0,19.56,6.36,19.56,19.319v6.6c0,8.64-2.76,14.279-8.64,17.04c6.6,2.76,8.76,9.119,8.76,17.879v12.96
			c0,4.079,0.12,7.079,1.439,10.199H339.398z M324.999,297.003v25.799h5.16c4.92,0,7.919-2.16,7.919-8.879v-8.28
			c0-6-2.04-8.64-6.72-8.64H324.999z"/>
		<path fill="#FFFFFF" d="M373.238,320.402h18.12v12h-18.12V357h22.799v12h-35.999v-83.997h35.999v12h-22.799V320.402z"/>
		<path fill="#FFFFFF" d="M421.958,284.043c12.839,0,19.439,7.68,19.439,21.119v2.64h-12.479v-3.48c0-6-2.4-8.28-6.6-8.28
			s-6.6,2.28-6.6,8.28c0,17.279,25.799,20.519,25.799,44.518c0,13.439-6.72,21.119-19.679,21.119s-19.679-7.68-19.679-21.119v-5.16
			h12.479v6c0,6,2.64,8.16,6.84,8.16s6.84-2.16,6.84-8.16c0-17.279-25.799-20.519-25.799-44.518
			C402.519,291.723,409.119,284.043,421.958,284.043z"/>
		<path fill="#FFFFFF" d="M445.238,285.003h40.799v12h-13.8V369h-13.199v-71.997h-13.8V285.003z"/>
		<path fill="#FFFFFF" d="M519.396,369c-0.72-2.16-1.2-3.479-1.2-10.319v-13.2c0-7.799-2.64-10.679-8.639-10.679h-4.561V369h-13.199
			v-83.997h19.919c13.68,0,19.56,6.36,19.56,19.319v6.6c0,8.64-2.76,14.279-8.64,17.04c6.6,2.76,8.76,9.119,8.76,17.879v12.96
			c0,4.079,0.12,7.079,1.439,10.199H519.396z M504.996,297.003v25.799h5.16c4.92,0,7.92-2.16,7.92-8.879v-8.28
			c0-6-2.04-8.64-6.72-8.64H504.996z"/>
		<path fill="#FFFFFF" d="M538.956,305.163c0-13.439,7.08-21.119,20.039-21.119c12.96,0,20.039,7.68,20.039,21.119v43.678
			c0,13.439-7.079,21.119-20.039,21.119c-12.959,0-20.039-7.68-20.039-21.119V305.163z M552.155,349.681c0,6,2.641,8.28,6.84,8.28
			c4.2,0,6.84-2.28,6.84-8.28v-45.358c0-6-2.64-8.28-6.84-8.28c-4.199,0-6.84,2.28-6.84,8.28V349.681z"/>
		<path fill="#FFFFFF" d="M586.476,305.163c0-13.439,7.08-21.119,20.039-21.119c12.96,0,20.039,7.68,20.039,21.119v43.678
			c0,13.439-7.079,21.119-20.039,21.119c-12.959,0-20.039-7.68-20.039-21.119V305.163z M599.675,349.681c0,6,2.641,8.28,6.84,8.28
			c4.2,0,6.84-2.28,6.84-8.28v-45.358c0-6-2.64-8.28-6.84-8.28c-4.199,0-6.84,2.28-6.84,8.28V349.681z"/>
		<path fill="#FFFFFF" d="M663.034,344.641l8.999-59.638h18.359V369h-12.479v-60.237L668.794,369h-12.479l-9.84-59.397V369h-11.52
			v-83.997h18.359L663.034,344.641z"/>
		<path fill="#FFFFFF" d="M717.752,284.043c12.84,0,19.439,7.68,19.439,21.119v2.64h-12.479v-3.48c0-6-2.399-8.28-6.6-8.28
			s-6.6,2.28-6.6,8.28c0,17.279,25.799,20.519,25.799,44.518c0,13.439-6.72,21.119-19.679,21.119c-12.96,0-19.68-7.68-19.68-21.119
			v-5.16h12.479v6c0,6,2.64,8.16,6.84,8.16s6.84-2.16,6.84-8.16c0-17.279-25.799-20.519-25.799-44.518
			C698.313,291.723,704.913,284.043,717.752,284.043z"/>
	</g>
</g>
</svg>
