<?xml version="1.0" encoding="utf-8"?>
<!-- Generator: Adobe Illustrator 17.1.0, SVG Export Plug-In . SVG Version: 6.00 Build 0)  -->
<!DOCTYPE svg PUBLIC "-//W3C//DTD SVG 1.1 Tiny//EN" "http://www.w3.org/Graphics/SVG/1.1/DTD/svg11-tiny.dtd">
<svg version="1.1" baseProfile="tiny" id="Layer_1" xmlns="http://www.w3.org/2000/svg" xmlns:xlink="http://www.w3.org/1999/xlink"
	 x="0px" y="0px" viewBox="0 0 455 176" xml:space="preserve">
<path fill="#41326B" d="M455,167.354c0,4.734-4.139,8.646-8.85,8.646H8.531C3.819,176,0,172.088,0,167.354V8.787
	C0,4.053,3.819,0,8.531,0H446.15c4.711,0,8.85,4.053,8.85,8.787V167.354z"/>
<g>
	<g>
		<ellipse fill="#FFFFFF" cx="49.668" cy="25.882" rx="11.637" ry="11.965"/>
		<path fill="#FFFFFF" d="M78.831,54.44c-0.012-1.652-0.385-3.544-1.25-4.905c-3.205-5.046-7.975-8.004-13.916-8.217
			C59.109,41.154,55,41.182,50,41.213v-0.006c-5,0.008-9.035,0.025-13.545,0.014c-3.039-0.008-5.543,1.168-7.147,3.668
			c-1.372,2.138-2.51,4.476-3.415,6.853c-1.019,2.675-1.659,5.494-2.475,8.247c-2.639,8.9-5.194,17.826-7.971,26.682
			c-1.084,3.457-0.188,6.376,2.852,7.466c3.095,1.109,5.84-0.413,6.954-3.909c0.963-3.023,1.866-6.065,2.801-9.097
			c2.308-7.484,4.618-14.968,6.995-22.67c0.891,0.399,1.598,0.634,2.384,0.986C31.904,77.719,26.449,96,20.897,114
			c5.38,0,11.103,0,15.103,0c0,1,0,2.15,0,3.033c0,12.849,0.23,25.697,0.275,38.546c0.004,1.247,0.275,2.61,0.79,3.716
			c1.122,2.406,3.887,3.465,6.59,2.853c2.633-0.597,4.371-2.833,4.382-5.857c0.049-13.15,0.087-26.429,0.119-39.58
			c0.002-0.813,0.016-1.711,0.016-2.711c0.64,0,1.205,0,1.797,0h1.545c0.021,4,0.047,9.027,0.057,13.442
			c0.02,9.22-0.039,18.538,0.036,27.757c0.047,5.75,5.463,9.152,10.312,6.491c2.91-1.597,2.88-4.295,2.878-7.407
			C64.783,124.45,64,94.642,64,64.81c0-0.878,0-1.756,0-2.59c3-0.657,3.186,0.251,3.18,1.831
			c-0.042,10.269,0.366,20.538,0.376,30.807c0.004,3.965,2.203,6.25,5.639,6.272c3.435,0.022,5.585-2.261,5.589-6.213
			C78.798,81.424,78.929,67.931,78.831,54.44z"/>
	</g>
	<g>
		<path fill="#FFFFFF" d="M110.255,84.322c-0.599-1.798-0.999-2.898-0.999-8.594V64.737c0-6.495-2.199-8.893-7.195-8.893h-3.797
			v28.479H87.272V14.374h16.587c11.392,0,16.288,5.296,16.288,16.088v5.496c0,7.195-2.298,11.891-7.195,14.189
			c5.496,2.299,7.295,7.595,7.295,14.889v10.792c0,3.398,0.1,5.896,1.199,8.494H110.255z M98.263,24.367v21.484h4.297
			c4.097,0,6.595-1.798,6.595-7.394v-6.895c0-4.996-1.698-7.195-5.596-7.195H98.263z"/>
		<path fill="#FFFFFF" d="M138.435,43.852h15.089v9.993h-15.089V74.33h18.986v9.993h-29.978V14.374h29.978v9.993h-18.986V43.852z"/>
		<path fill="#FFFFFF" d="M175.209,45.451h14.189v9.993h-14.189v28.879h-10.992V14.374h29.078v9.993h-18.086V45.451z"/>
		<path fill="#FFFFFF" d="M209.084,14.374v53.96c0,4.996,2.199,6.795,5.696,6.795c3.498,0,5.696-1.799,5.696-6.795v-53.96h10.392
			v53.261c0,11.192-5.596,17.587-16.387,17.587c-10.792,0-16.388-6.395-16.388-17.587V14.374H209.084z"/>
		<path fill="#FFFFFF" d="M254.851,45.351h15.389v22.184c0,11.192-5.596,17.587-16.387,17.587c-10.792,0-16.388-6.395-16.388-17.587
			V31.162c0-11.192,5.596-17.587,16.388-17.587c10.792,0,16.387,6.395,16.387,17.587v6.795h-10.392v-7.494
			c0-4.996-2.198-6.895-5.696-6.895c-3.497,0-5.696,1.898-5.696,6.895v37.772c0,4.996,2.199,6.795,5.696,6.795
			c3.498,0,5.696-1.798,5.696-6.795v-12.89h-4.996V45.351z"/>
		<path fill="#FFFFFF" d="M288.328,43.852h15.089v9.993h-15.089V74.33h18.986v9.993h-29.977V14.374h29.977v9.993h-18.986V43.852z"/>
		<path fill="#FFFFFF" d="M110.255,162.601c-0.599-1.799-0.999-2.898-0.999-8.593v-10.992c0-6.495-2.199-8.893-7.195-8.893h-3.797
			v28.479H87.272V92.653h16.587c11.392,0,16.288,5.296,16.288,16.088v5.496c0,7.195-2.298,11.891-7.195,14.19
			c5.496,2.298,7.295,7.594,7.295,14.889v10.792c0,3.397,0.1,5.895,1.199,8.493H110.255z M98.263,102.646v21.484h4.297
			c4.097,0,6.595-1.798,6.595-7.394v-6.895c0-4.996-1.698-7.195-5.596-7.195H98.263z"/>
		<path fill="#FFFFFF" d="M138.435,122.131h15.089v9.993h-15.089v20.484h18.986v9.993h-29.978V92.653h29.978v9.993h-18.986V122.131z
			"/>
		<path fill="#FFFFFF" d="M179.006,91.854c10.692,0,16.188,6.395,16.188,17.587v2.199h-10.392v-2.898
			c0-4.996-1.999-6.895-5.496-6.895s-5.496,1.898-5.496,6.895c0,14.389,21.484,17.087,21.484,37.072
			c0,11.192-5.596,17.587-16.388,17.587s-16.388-6.395-16.388-17.587v-4.297h10.392v4.996c0,4.996,2.199,6.795,5.696,6.795
			s5.696-1.799,5.696-6.795c0-14.389-21.484-17.087-21.484-37.072C162.818,98.249,168.314,91.854,179.006,91.854z"/>
		<path fill="#FFFFFF" d="M198.392,92.653h33.975v9.993h-11.492v59.955h-10.992v-59.955h-11.492V92.653z"/>
		<path fill="#FFFFFF" d="M260.147,162.601c-0.599-1.799-0.999-2.898-0.999-8.593v-10.992c0-6.495-2.198-8.893-7.194-8.893h-3.798
			v28.479h-10.992V92.653h16.587c11.392,0,16.288,5.296,16.288,16.088v5.496c0,7.195-2.298,11.891-7.195,14.19
			c5.496,2.298,7.295,7.594,7.295,14.889v10.792c0,3.397,0.1,5.895,1.199,8.493H260.147z M248.156,102.646v21.484h4.297
			c4.097,0,6.595-1.798,6.595-7.394v-6.895c0-4.996-1.699-7.195-5.596-7.195H248.156z"/>
		<path fill="#FFFFFF" d="M276.436,109.441c0-11.192,5.896-17.587,16.688-17.587c10.792,0,16.688,6.395,16.688,17.587v36.373
			c0,11.192-5.895,17.587-16.688,17.587c-10.792,0-16.688-6.395-16.688-17.587V109.441z M287.427,146.513
			c0,4.996,2.199,6.895,5.696,6.895c3.498,0,5.696-1.899,5.696-6.895v-37.772c0-4.996-2.198-6.895-5.696-6.895
			c-3.497,0-5.696,1.898-5.696,6.895V146.513z"/>
		<path fill="#FFFFFF" d="M316.008,109.441c0-11.192,5.896-17.587,16.688-17.587c10.792,0,16.687,6.395,16.687,17.587v36.373
			c0,11.192-5.895,17.587-16.687,17.587c-10.792,0-16.688-6.395-16.688-17.587V109.441z M326.999,146.513
			c0,4.996,2.199,6.895,5.696,6.895c3.498,0,5.696-1.899,5.696-6.895v-37.772c0-4.996-2.198-6.895-5.696-6.895
			c-3.497,0-5.696,1.898-5.696,6.895V146.513z"/>
		<path fill="#FFFFFF" d="M379.762,142.316l7.494-49.663h15.289v69.948h-10.392v-50.163l-7.594,50.163h-10.392l-8.194-49.463v49.463
			h-9.593V92.653h15.289L379.762,142.316z"/>
		<path fill="#FFFFFF" d="M425.328,91.854c10.692,0,16.188,6.395,16.188,17.587v2.199h-10.392v-2.898
			c0-4.996-1.998-6.895-5.496-6.895s-5.496,1.898-5.496,6.895c0,14.389,21.484,17.087,21.484,37.072
			c0,11.192-5.596,17.587-16.387,17.587c-10.792,0-16.388-6.395-16.388-17.587v-4.297h10.392v4.996c0,4.996,2.198,6.795,5.696,6.795
			c3.498,0,5.696-1.799,5.696-6.795c0-14.389-21.484-17.087-21.484-37.072C409.14,98.249,414.636,91.854,425.328,91.854z"/>
	</g>
</g>
</svg>
