<?xml version="1.0" encoding="utf-8"?>
<!-- Generator: Adobe Illustrator 17.1.0, SVG Export Plug-In . SVG Version: 6.00 Build 0)  -->
<!DOCTYPE svg PUBLIC "-//W3C//DTD SVG 1.1 Tiny//EN" "http://www.w3.org/Graphics/SVG/1.1/DTD/svg11-tiny.dtd">
<svg version="1.1" baseProfile="tiny" id="Layer_1" xmlns="http://www.w3.org/2000/svg" xmlns:xlink="http://www.w3.org/1999/xlink"
	 x="0px" y="0px" viewBox="0 0 455 176" xml:space="preserve">
<g>
	<g>
		<ellipse fill="#41326B" cx="41.004" cy="23.197" rx="12.08" ry="12.422"/>
		<path fill="#41326B" d="M71.278,52.844c-0.012-1.715-0.4-3.679-1.298-5.092c-3.327-5.238-8.453-8.309-14.62-8.53
			C50.631,39.052,46,39.08,41,39.113v-0.007c-5,0.009-9.206,0.026-13.887,0.015c-3.155-0.008-5.667,1.213-7.332,3.808
			c-1.424,2.219-2.562,4.647-3.502,7.114c-1.058,2.777-1.7,5.704-2.548,8.562c-2.739,9.239-5.381,18.506-8.264,27.7
			c-1.125,3.589-0.19,6.619,2.967,7.751c3.213,1.152,6.066-0.428,7.222-4.058c1-3.138,1.939-6.296,2.909-9.444
			c2.396-7.77,4.795-15.538,7.263-23.534c0.925,0.414,1.659,0.82,2.475,1.185C22.561,77.173,16.899,96,11.135,115
			C16.72,115,22,115,27,115c0,1,0,1.908,0,2.824c0,13.339,0.146,26.677,0.193,40.016c0.005,1.295,0.239,2.709,0.774,3.857
			c1.164,2.498,4.012,3.597,6.818,2.962c2.734-0.619,4.526-2.941,4.538-6.08c0.051-13.652,0.085-27.275,0.118-40.927
			C39.442,116.809,39.45,116,39.45,115c0.664,0,1.251,0,1.865,0h1.604c0.021,4,0.049,9.209,0.059,13.792
			c0.021,9.571-0.04,19.164,0.037,28.734c0.048,5.969,5.672,9.461,10.706,6.698c3.021-1.658,3.049-4.479,3.047-7.71
			C56.754,125.545,56,94.58,56,63.609c0-0.911,0-1.823,0-2.689c3-0.682,3.248,0.261,3.242,1.901
			c-0.043,10.66,0.351,21.321,0.361,31.982c0.004,4.117,2.272,6.488,5.839,6.511c3.566,0.023,5.791-2.348,5.795-6.45
			C71.251,80.857,71.38,66.85,71.278,52.844z"/>
	</g>
	<g>
		<path fill="#41326B" d="M103.9,83.866c-0.622-1.867-1.037-3.008-1.037-8.922V63.534c0-6.743-2.282-9.233-7.469-9.233h-3.942
			v29.565H80.041V11.251h17.22c11.826,0,16.909,5.498,16.909,16.702v5.705c0,7.469-2.386,12.345-7.469,14.73
			c5.705,2.386,7.573,7.884,7.573,15.457v11.204c0,3.527,0.103,6.121,1.244,8.818H103.9z M91.452,21.624v22.303h4.461
			c4.253,0,6.846-1.867,6.846-7.676v-7.158c0-5.187-1.763-7.469-5.809-7.469H91.452z"/>
		<path fill="#41326B" d="M133.155,41.853h15.665v10.374h-15.665v21.266h19.71v10.374h-31.121V11.251h31.121v10.374h-19.71V41.853z"
			/>
		<path fill="#41326B" d="M171.332,43.513h14.73v10.374h-14.73v29.98h-11.411V11.251h30.187v10.374h-18.776V43.513z"/>
		<path fill="#41326B" d="M206.499,11.251v56.018c0,5.187,2.283,7.054,5.913,7.054c3.631,0,5.913-1.867,5.913-7.054V11.251h10.789
			v55.292c0,11.618-5.809,18.258-17.012,18.258c-11.204,0-17.013-6.639-17.013-18.258V11.251H206.499z"/>
		<path fill="#41326B" d="M254.011,43.409h15.976v23.03c0,11.618-5.809,18.258-17.012,18.258c-11.204,0-17.013-6.639-17.013-18.258
			v-37.76c0-11.618,5.809-18.258,17.013-18.258c11.203,0,17.012,6.639,17.012,18.258v7.054h-10.789v-7.78
			c0-5.187-2.282-7.158-5.913-7.158c-3.63,0-5.913,1.971-5.913,7.158v39.212c0,5.187,2.283,7.054,5.913,7.054
			c3.631,0,5.913-1.867,5.913-7.054V53.783h-5.187V43.409z"/>
		<path fill="#41326B" d="M288.764,41.853h15.664v10.374h-15.664v21.266h19.71v10.374h-31.12V11.251h31.12v10.374h-19.71V41.853z"/>
		<path fill="#41326B" d="M103.9,165.13c-0.622-1.867-1.037-3.008-1.037-8.921v-11.412c0-6.743-2.282-9.232-7.469-9.232h-3.942
			v29.565H80.041V92.515h17.22c11.826,0,16.909,5.498,16.909,16.702v5.705c0,7.469-2.386,12.345-7.469,14.731
			c5.705,2.386,7.573,7.884,7.573,15.456v11.204c0,3.526,0.103,6.12,1.244,8.817H103.9z M91.452,102.888v22.303h4.461
			c4.253,0,6.846-1.867,6.846-7.676v-7.158c0-5.187-1.763-7.469-5.809-7.469H91.452z"/>
		<path fill="#41326B" d="M133.155,123.117h15.665v10.374h-15.665v21.266h19.71v10.374h-31.121V92.515h31.121v10.374h-19.71V123.117
			z"/>
		<path fill="#41326B" d="M175.273,91.685c11.1,0,16.805,6.639,16.805,18.258v2.282H181.29v-3.008c0-5.187-2.075-7.158-5.706-7.158
			s-5.705,1.971-5.705,7.158c0,14.938,22.303,17.739,22.303,38.486c0,11.618-5.809,18.258-17.013,18.258
			s-17.013-6.639-17.013-18.258v-4.461h10.789v5.187c0,5.187,2.282,7.054,5.913,7.054c3.631,0,5.913-1.867,5.913-7.054
			c0-14.938-22.304-17.739-22.304-38.486C158.468,98.324,164.174,91.685,175.273,91.685z"/>
		<path fill="#41326B" d="M195.399,92.515h35.271v10.374h-11.93v62.242h-11.411v-62.242h-11.93V92.515z"/>
		<path fill="#41326B" d="M259.509,165.13c-0.622-1.867-1.038-3.008-1.038-8.921v-11.412c0-6.743-2.282-9.232-7.468-9.232h-3.943
			v29.565h-11.411V92.515h17.22c11.826,0,16.909,5.498,16.909,16.702v5.705c0,7.469-2.386,12.345-7.469,14.731
			c5.705,2.386,7.573,7.884,7.573,15.456v11.204c0,3.526,0.104,6.12,1.244,8.817H259.509z M247.06,102.888v22.303h4.461
			c4.253,0,6.847-1.867,6.847-7.676v-7.158c0-5.187-1.764-7.469-5.809-7.469H247.06z"/>
		<path fill="#41326B" d="M276.419,109.942c0-11.618,6.121-18.258,17.324-18.258c11.204,0,17.324,6.639,17.324,18.258v37.76
			c0,11.618-6.12,18.258-17.324,18.258c-11.203,0-17.324-6.639-17.324-18.258V109.942z M287.83,148.428
			c0,5.187,2.283,7.158,5.913,7.158c3.631,0,5.913-1.971,5.913-7.158v-39.212c0-5.187-2.282-7.158-5.913-7.158
			c-3.63,0-5.913,1.971-5.913,7.158V148.428z"/>
		<path fill="#41326B" d="M317.5,109.942c0-11.618,6.121-18.258,17.324-18.258c11.204,0,17.324,6.639,17.324,18.258v37.76
			c0,11.618-6.12,18.258-17.324,18.258c-11.203,0-17.324-6.639-17.324-18.258V109.942z M328.91,148.428
			c0,5.187,2.283,7.158,5.913,7.158c3.631,0,5.913-1.971,5.913-7.158v-39.212c0-5.187-2.282-7.158-5.913-7.158
			c-3.63,0-5.913,1.971-5.913,7.158V148.428z"/>
		<path fill="#41326B" d="M383.685,144.072l7.78-51.557h15.872v72.615h-10.789v-52.075l-7.884,52.075h-10.789l-8.507-51.349v51.349
			h-9.959V92.515h15.872L383.685,144.072z"/>
		<path fill="#41326B" d="M430.989,91.685c11.1,0,16.805,6.639,16.805,18.258v2.282h-10.789v-3.008c0-5.187-2.074-7.158-5.705-7.158
			c-3.631,0-5.705,1.971-5.705,7.158c0,14.938,22.303,17.739,22.303,38.486c0,11.618-5.809,18.258-17.012,18.258
			c-11.204,0-17.013-6.639-17.013-18.258v-4.461h10.789v5.187c0,5.187,2.282,7.054,5.913,7.054c3.631,0,5.913-1.867,5.913-7.054
			c0-14.938-22.303-17.739-22.303-38.486C414.184,98.324,419.889,91.685,430.989,91.685z"/>
	</g>
</g>
</svg>
