<?xml version="1.0" encoding="utf-8"?>
<!-- Generator: Adobe Illustrator 17.1.0, SVG Export Plug-In . SVG Version: 6.00 Build 0)  -->
<!DOCTYPE svg PUBLIC "-//W3C//DTD SVG 1.1 Tiny//EN" "http://www.w3.org/Graphics/SVG/1.1/DTD/svg11-tiny.dtd">
<svg version="1.1" baseProfile="tiny" id="Layer_1" xmlns="http://www.w3.org/2000/svg" xmlns:xlink="http://www.w3.org/1999/xlink"
	 x="0px" y="0px" viewBox="0 0 137.832 34" xml:space="preserve">
<g>
	<path fill="#41326B" d="M69,31c0,1.657-1.343,3-3,3H3c-1.657,0-3-1.343-3-3V3c0-1.657,1.343-3,3-3h63c1.657,0,3,1.343,3,3V31z"/>
</g>
<g>
	<path fill="#FFFFFF" d="M47.435,18.301c0,0.992-0.144,1.889-0.432,2.688s-0.692,1.487-1.212,2.063
		c-0.521,0.576-1.14,1.021-1.86,1.332c-0.72,0.312-1.504,0.468-2.352,0.468c-0.849,0-1.632-0.155-2.353-0.468
		c-0.72-0.312-1.34-0.756-1.859-1.332c-0.521-0.576-0.924-1.264-1.212-2.063s-0.432-1.696-0.432-2.688
		c0-0.976,0.144-1.867,0.432-2.676c0.288-0.808,0.691-1.5,1.212-2.076c0.52-0.576,1.14-1.021,1.859-1.332
		c0.721-0.312,1.504-0.468,2.353-0.468c0.848,0,1.632,0.155,2.352,0.468c0.721,0.312,1.34,0.756,1.86,1.332
		c0.52,0.576,0.924,1.269,1.212,2.076C47.292,16.434,47.435,17.325,47.435,18.301z M45.108,18.301c0-1.407-0.316-2.523-0.948-3.348
		c-0.633-0.824-1.492-1.236-2.58-1.236s-1.948,0.412-2.58,1.236s-0.948,1.94-0.948,3.348c0,1.408,0.316,2.524,0.948,3.349
		s1.492,1.235,2.58,1.235s1.947-0.411,2.58-1.235C44.792,20.825,45.108,19.709,45.108,18.301z"/>
	<path fill="#FFFFFF" d="M50.58,12.421c0.512-0.128,1.191-0.264,2.04-0.408c0.848-0.144,1.824-0.216,2.928-0.216
		c0.992,0,1.816,0.141,2.473,0.42c0.655,0.28,1.18,0.672,1.571,1.176c0.393,0.504,0.668,1.108,0.828,1.812s0.24,1.48,0.24,2.328
		v7.008h-2.232v-6.528c0-0.768-0.052-1.424-0.155-1.968c-0.104-0.544-0.276-0.983-0.517-1.32c-0.239-0.336-0.56-0.579-0.96-0.731
		c-0.399-0.152-0.896-0.229-1.487-0.229c-0.24,0-0.488,0.009-0.744,0.024c-0.257,0.016-0.501,0.036-0.732,0.06
		c-0.232,0.024-0.44,0.053-0.624,0.084c-0.184,0.032-0.316,0.057-0.396,0.072v10.536H50.58V12.421z"/>
</g>
<g id="ri0wTS.tif_4_">
	<g>
		<g>
			<path fill="#FFFFFF" d="M19.658,13.625c-1.888,0-3.726,0-5.578,0c-0.081-1.502-0.16-2.98-0.239-4.453
				c0.094-0.024,0.149-0.038,0.205-0.052c1.136-0.284,1.83-1.251,1.73-2.411c-0.109-1.27-1.235-2.177-2.52-1.972
				c-1.2,0.191-1.982,1.371-1.778,2.521c0.055,0.309,0.201,0.606,0.226,0.914c0.143,1.794,0.264,3.59,0.39,5.386
				c0.108,1.546,0.211,3.093,0.318,4.639c0.022,0.322,0.052,0.644,0.081,0.993c0.132,0,0.238,0,0.345,0
				c2.435,0.002,4.87,0.008,7.304-0.002c0.253-0.001,0.359,0.084,0.451,0.307c1.002,2.432,2.016,4.859,3.02,7.29
				c0.085,0.206,0.165,0.252,0.383,0.161c1.253-0.519,2.514-1.02,3.772-1.529c0.081-0.033,0.16-0.073,0.251-0.114
				c-0.223-0.549-0.435-1.071-0.654-1.61c-0.809,0.291-1.595,0.574-2.39,0.861c-0.048-0.108-0.086-0.191-0.121-0.274
				c-0.98-2.306-1.962-4.611-2.933-6.92c-0.088-0.208-0.193-0.278-0.421-0.275c-2.243,0.025-4.486,0.036-6.729,0.05
				c-0.122,0.001-0.243,0-0.383,0c-0.03-0.475-0.058-0.919-0.088-1.391c0.139,0,0.237,0,0.335,0c1.242,0,2.485,0.003,3.727-0.002
				c0.421-0.002,0.843-0.026,1.264-0.039c0.011-0.415,0.024-0.829,0.032-1.244C19.662,14.196,19.658,13.931,19.658,13.625z
				 M20.435,22.241c-0.036,0.158-0.062,0.261-0.082,0.364c-0.204,1.053-0.655,1.982-1.344,2.806
				c-1.558,1.861-4.243,2.539-6.468,1.62c-3.149-1.302-4.573-5.041-3.1-8.126c0.441-0.922,1.069-1.685,1.892-2.287
				c0.141-0.103,0.207-0.214,0.186-0.397c-0.037-0.331-0.044-0.665-0.069-0.998c-0.029-0.385-0.065-0.77-0.1-1.176
				c-0.081,0.033-0.128,0.048-0.171,0.07c-2.992,1.537-4.81,4.711-4.469,8.227c0.198,2.039,1.062,3.795,2.573,5.191
				c1.914,1.768,4.182,2.492,6.752,2.027c2.578-0.466,4.466-1.943,5.727-4.226c0.052-0.094,0.043-0.261-0.004-0.362
				c-0.385-0.831-0.786-1.654-1.184-2.48C20.54,22.423,20.498,22.355,20.435,22.241z"/>
		</g>
		<g>
			<path fill="#FFFFFF" d="M19.658,13.625c0,0.306,0.004,0.571-0.001,0.835c-0.007,0.415-0.021,0.829-0.032,1.244
				c-0.421,0.014-0.843,0.038-1.264,0.039c-1.242,0.005-2.485,0.002-3.727,0.002c-0.098,0-0.196,0-0.335,0
				c0.03,0.472,0.058,0.915,0.088,1.391c0.14,0,0.262,0.001,0.383,0c2.243-0.015,4.486-0.026,6.729-0.05
				c0.228-0.002,0.334,0.067,0.421,0.275c0.972,2.309,1.954,4.614,2.933,6.92c0.035,0.084,0.073,0.166,0.121,0.274
				c0.795-0.286,1.581-0.569,2.39-0.861c0.219,0.54,0.431,1.062,0.654,1.61c-0.091,0.041-0.169,0.081-0.251,0.114
				c-1.258,0.508-2.519,1.009-3.772,1.529c-0.219,0.091-0.298,0.045-0.383-0.161c-1.004-2.431-2.018-4.858-3.02-7.29
				c-0.092-0.224-0.198-0.308-0.451-0.307c-2.435,0.01-4.87,0.003-7.304,0.002c-0.107,0-0.213,0-0.345,0
				c-0.029-0.349-0.058-0.671-0.081-0.993c-0.107-1.546-0.21-3.093-0.318-4.639c-0.125-1.796-0.246-3.592-0.39-5.386
				c-0.025-0.309-0.171-0.606-0.226-0.914c-0.204-1.15,0.579-2.329,1.778-2.521c1.284-0.205,2.41,0.702,2.52,1.972
				c0.1,1.16-0.594,2.127-1.73,2.411c-0.056,0.014-0.112,0.028-0.205,0.052c0.079,1.473,0.158,2.95,0.239,4.453
				C15.932,13.625,17.77,13.625,19.658,13.625z"/>
		</g>
		<g>
			<path fill="#FFFFFF" d="M20.435,22.241c0.064,0.115,0.106,0.182,0.14,0.253c0.397,0.825,0.798,1.649,1.184,2.48
				c0.047,0.102,0.056,0.269,0.004,0.362c-1.261,2.283-3.149,3.76-5.727,4.226c-2.57,0.465-4.839-0.259-6.752-2.027
				c-1.511-1.397-2.376-3.152-2.573-5.191c-0.341-3.516,1.477-6.69,4.469-8.227c0.043-0.022,0.09-0.037,0.171-0.07
				c0.035,0.407,0.07,0.791,0.1,1.176c0.025,0.332,0.033,0.666,0.069,0.998c0.02,0.183-0.045,0.294-0.186,0.397
				c-0.823,0.602-1.451,1.365-1.892,2.287c-1.473,3.085-0.049,6.824,3.1,8.126c2.225,0.92,4.91,0.242,6.468-1.62
				c0.689-0.824,1.141-1.753,1.344-2.806C20.372,22.501,20.399,22.399,20.435,22.241z"/>
		</g>
	</g>
</g>
<g>
	<path fill="#8377AF" d="M137.832,31c0,1.657-1.343,3-3,3h-63c-1.657,0-3-1.343-3-3V3c0-1.657,1.343-3,3-3h63c1.657,0,3,1.343,3,3
		V31z"/>
</g>
<g>
	<path fill="#FFFFFF" d="M111.267,18.301c0,0.992-0.144,1.889-0.432,2.688s-0.692,1.487-1.212,2.063
		c-0.521,0.576-1.14,1.021-1.86,1.332c-0.72,0.312-1.504,0.468-2.352,0.468c-0.849,0-1.632-0.155-2.353-0.468
		c-0.72-0.312-1.34-0.756-1.859-1.332c-0.521-0.576-0.924-1.264-1.212-2.063s-0.432-1.696-0.432-2.688
		c0-0.976,0.144-1.867,0.432-2.676c0.288-0.808,0.691-1.5,1.212-2.076c0.52-0.576,1.14-1.021,1.859-1.332
		c0.721-0.312,1.504-0.468,2.353-0.468c0.848,0,1.632,0.155,2.352,0.468c0.721,0.312,1.34,0.756,1.86,1.332
		c0.52,0.576,0.924,1.269,1.212,2.076C111.124,16.434,111.267,17.325,111.267,18.301z M108.94,18.301
		c0-1.407-0.316-2.523-0.948-3.348c-0.633-0.824-1.492-1.236-2.58-1.236s-1.948,0.412-2.58,1.236s-0.948,1.94-0.948,3.348
		c0,1.408,0.316,2.524,0.948,3.349s1.492,1.235,2.58,1.235s1.947-0.411,2.58-1.235C108.624,20.825,108.94,19.709,108.94,18.301z"/>
	<path fill="#FFFFFF" d="M119.284,5.917c0.656,0,1.22,0.048,1.692,0.144c0.472,0.097,0.804,0.185,0.996,0.265l-0.408,1.92
		c-0.192-0.097-0.465-0.188-0.816-0.276s-0.784-0.132-1.296-0.132c-1.04,0-1.769,0.284-2.184,0.852
		c-0.417,0.568-0.624,1.332-0.624,2.292v1.08h4.8v1.872h-4.8v10.608h-2.232V10.933c0-1.6,0.392-2.836,1.176-3.708
		S117.604,5.917,119.284,5.917z M128.644,5.917c0.655,0,1.22,0.048,1.691,0.144c0.472,0.097,0.805,0.185,0.996,0.265l-0.408,1.92
		c-0.191-0.097-0.464-0.188-0.815-0.276c-0.353-0.088-0.784-0.132-1.296-0.132c-1.041,0-1.769,0.284-2.185,0.852
		c-0.416,0.568-0.624,1.332-0.624,2.292v1.08h4.8v1.872h-4.8v10.608h-2.231V10.933c0-1.6,0.392-2.836,1.176-3.708
		S126.963,5.917,128.644,5.917z"/>
</g>
<g id="ri0wTS.tif_1_">
	<g>
		<g>
			<path fill="#FFFFFF" d="M88.49,13.625c-1.888,0-3.726,0-5.578,0c-0.081-1.502-0.16-2.98-0.239-4.453
				c0.094-0.024,0.149-0.038,0.205-0.052c1.136-0.284,1.83-1.251,1.73-2.411c-0.109-1.27-1.235-2.177-2.52-1.972
				c-1.2,0.191-1.982,1.371-1.778,2.521c0.055,0.309,0.201,0.606,0.226,0.914c0.143,1.794,0.264,3.59,0.39,5.386
				c0.108,1.546,0.211,3.093,0.318,4.639c0.022,0.322,0.052,0.644,0.081,0.993c0.132,0,0.238,0,0.345,0
				c2.435,0.002,4.87,0.008,7.304-0.002c0.253-0.001,0.359,0.084,0.451,0.307c1.002,2.432,2.016,4.859,3.02,7.29
				c0.085,0.206,0.165,0.252,0.383,0.161c1.253-0.519,2.514-1.02,3.772-1.529c0.081-0.033,0.16-0.073,0.251-0.114
				c-0.223-0.549-0.435-1.071-0.654-1.61c-0.809,0.291-1.595,0.574-2.39,0.861c-0.048-0.108-0.086-0.191-0.121-0.274
				c-0.98-2.306-1.962-4.611-2.933-6.92c-0.088-0.208-0.193-0.278-0.421-0.275c-2.243,0.025-4.486,0.036-6.729,0.05
				c-0.122,0.001-0.243,0-0.383,0c-0.03-0.475-0.058-0.919-0.088-1.391c0.139,0,0.237,0,0.335,0c1.242,0,2.485,0.003,3.727-0.002
				c0.421-0.002,0.843-0.026,1.264-0.039c0.011-0.415,0.024-0.829,0.032-1.244C88.494,14.196,88.49,13.931,88.49,13.625z
				 M89.266,22.241c-0.036,0.158-0.062,0.261-0.082,0.364c-0.204,1.053-0.655,1.982-1.344,2.806
				c-1.558,1.861-4.243,2.539-6.468,1.62c-3.149-1.302-4.573-5.041-3.1-8.126c0.441-0.922,1.069-1.685,1.892-2.287
				c0.141-0.103,0.207-0.214,0.186-0.397c-0.037-0.331-0.044-0.665-0.069-0.998c-0.029-0.385-0.065-0.77-0.1-1.176
				c-0.081,0.033-0.128,0.048-0.171,0.07c-2.992,1.537-4.81,4.711-4.469,8.227c0.198,2.039,1.062,3.795,2.573,5.191
				c1.914,1.768,4.182,2.492,6.752,2.027c2.578-0.466,4.466-1.943,5.727-4.226c0.052-0.094,0.043-0.261-0.004-0.362
				c-0.385-0.831-0.786-1.654-1.184-2.48C89.372,22.423,89.33,22.355,89.266,22.241z"/>
		</g>
		<g>
			<path fill="#FFFFFF" d="M88.49,13.625c0,0.306,0.004,0.571-0.001,0.835c-0.007,0.415-0.021,0.829-0.032,1.244
				c-0.421,0.014-0.843,0.038-1.264,0.039c-1.242,0.005-2.485,0.002-3.727,0.002c-0.098,0-0.196,0-0.335,0
				c0.03,0.472,0.058,0.915,0.088,1.391c0.14,0,0.262,0.001,0.383,0c2.243-0.015,4.486-0.026,6.729-0.05
				c0.228-0.002,0.334,0.067,0.421,0.275c0.972,2.309,1.954,4.614,2.933,6.92c0.035,0.084,0.073,0.166,0.121,0.274
				c0.795-0.286,1.581-0.569,2.39-0.861c0.219,0.54,0.431,1.062,0.654,1.61c-0.091,0.041-0.169,0.081-0.251,0.114
				c-1.258,0.508-2.519,1.009-3.772,1.529c-0.219,0.091-0.298,0.045-0.383-0.161c-1.004-2.431-2.018-4.858-3.02-7.29
				c-0.092-0.224-0.198-0.308-0.451-0.307c-2.435,0.01-4.87,0.003-7.304,0.002c-0.107,0-0.213,0-0.345,0
				c-0.029-0.349-0.058-0.671-0.081-0.993c-0.107-1.546-0.21-3.093-0.318-4.639c-0.125-1.796-0.246-3.592-0.39-5.386
				c-0.025-0.309-0.171-0.606-0.226-0.914c-0.204-1.15,0.579-2.329,1.778-2.521c1.284-0.205,2.41,0.702,2.52,1.972
				c0.1,1.16-0.594,2.127-1.73,2.411c-0.056,0.014-0.112,0.028-0.205,0.052c0.079,1.473,0.158,2.95,0.239,4.453
				C84.763,13.625,86.602,13.625,88.49,13.625z"/>
		</g>
		<g>
			<path fill="#FFFFFF" d="M89.266,22.241c0.064,0.115,0.106,0.182,0.14,0.253c0.397,0.825,0.798,1.649,1.184,2.48
				c0.047,0.102,0.056,0.269,0.004,0.362c-1.261,2.283-3.149,3.76-5.727,4.226c-2.57,0.465-4.839-0.259-6.752-2.027
				c-1.511-1.397-2.376-3.152-2.573-5.191c-0.341-3.516,1.477-6.69,4.469-8.227c0.043-0.022,0.09-0.037,0.171-0.07
				c0.035,0.407,0.07,0.791,0.1,1.176c0.025,0.332,0.033,0.666,0.069,0.998c0.02,0.183-0.045,0.294-0.186,0.397
				c-0.823,0.602-1.451,1.365-1.892,2.287c-1.473,3.085-0.049,6.824,3.1,8.126c2.225,0.92,4.91,0.242,6.468-1.62
				c0.689-0.824,1.141-1.753,1.344-2.806C89.204,22.501,89.23,22.399,89.266,22.241z"/>
		</g>
	</g>
</g>
</svg>
