<?xml version="1.0" encoding="utf-8"?>
<!-- Generator: Adobe Illustrator 17.1.0, SVG Export Plug-In . SVG Version: 6.00 Build 0)  -->
<!DOCTYPE svg PUBLIC "-//W3C//DTD SVG 1.1 Tiny//EN" "http://www.w3.org/Graphics/SVG/1.1/DTD/svg11-tiny.dtd">
<svg version="1.1" baseProfile="tiny" id="Layer_1" xmlns="http://www.w3.org/2000/svg" xmlns:xlink="http://www.w3.org/1999/xlink"
	 x="0px" y="0px" viewBox="0 0 74.456 37.228" xml:space="preserve">
<path fill="#40326B" d="M34.228,0H3C1.343,0,0,1.343,0,3v31.228c0,1.657,1.343,3,3,3h31.228c1.657,0,3-1.343,3-3V3
	C37.228,1.343,35.885,0,34.228,0z M33.046,28.341c0,0.703-0.57,1.273-1.273,1.273c-0.703,0-1.273-0.57-1.273-1.273v-16.66
	l-11.031,9.964c-0.486,0.438-1.222,0.438-1.707,0L6.729,11.681v16.66c0,0.703-0.57,1.273-1.273,1.273s-1.273-0.57-1.273-1.273V8.815
	c0-0.503,0.296-0.959,0.757-1.164c0.46-0.205,0.997-0.119,1.37,0.218l12.305,11.114L30.919,7.87c0.374-0.337,0.91-0.423,1.371-0.218
	c0.459,0.204,0.756,0.66,0.756,1.164V28.341z"/>
<path fill="#BE1E2D" d="M71.456,0H40.228c-1.657,0-3,1.343-3,3v31.228c0,1.657,1.343,3,3,3h31.228c1.657,0,3-1.343,3-3V3
	C74.456,1.343,73.113,0,71.456,0z M70.274,28.341c0,0.703-0.57,1.273-1.273,1.273c-0.703,0-1.273-0.57-1.273-1.273v-16.66
	l-11.031,9.964c-0.486,0.438-1.222,0.438-1.707,0l-11.032-9.964v16.66c0,0.703-0.57,1.273-1.273,1.273s-1.273-0.57-1.273-1.273
	V8.815c0-0.503,0.296-0.959,0.757-1.164c0.46-0.205,0.997-0.119,1.37,0.218l12.305,11.114L68.147,7.87
	c0.374-0.337,0.91-0.423,1.371-0.218c0.459,0.204,0.756,0.66,0.756,1.164V28.341z"/>
</svg>
