<?xml version="1.0" encoding="utf-8"?>
<!-- Generator: Adobe Illustrator 17.1.0, SVG Export Plug-In . SVG Version: 6.00 Build 0)  -->
<!DOCTYPE svg PUBLIC "-//W3C//DTD SVG 1.1 Tiny//EN" "http://www.w3.org/Graphics/SVG/1.1/DTD/svg11-tiny.dtd">
<svg version="1.1" baseProfile="tiny" id="Layer_1" xmlns="http://www.w3.org/2000/svg" xmlns:xlink="http://www.w3.org/1999/xlink"
	 x="0px" y="0px" viewBox="0 0 74.456 37.228" xml:space="preserve">
<g>
	<path fill="#40326B" d="M34.228,0H3C1.343,0,0,1.343,0,3v31.228c0,1.657,1.343,3,3,3h10.215c-0.003-0.632-0.02-1.91-0.029-3.554
		c-6.151,1.336-7.449-2.964-7.449-2.964c-1.006-2.555-2.455-3.235-2.455-3.235c-2.008-1.372,0.152-1.344,0.152-1.344
		C5.652,26.287,6.82,28.41,6.82,28.41c1.973,3.379,5.176,2.404,6.436,1.837c0.201-1.429,0.772-2.404,1.404-2.956
		c-4.91-0.558-10.073-2.455-10.073-10.929c0-2.414,0.862-4.388,2.276-5.934C6.636,9.868,5.877,7.62,7.08,4.575
		c0,0,1.857-0.595,6.081,2.267c1.764-0.49,3.656-0.736,5.536-0.744c1.878,0.009,3.77,0.254,5.536,0.744
		c4.222-2.862,6.075-2.267,6.075-2.267c1.206,3.044,0.447,5.293,0.22,5.852c1.417,1.546,2.273,3.52,2.273,5.934
		c0,8.495-5.17,10.365-10.097,10.912c0.794,0.683,1.501,2.032,1.501,4.095c0,2.736-0.023,4.965-0.026,5.859h10.048
		c1.657,0,3-1.343,3-3V3C37.228,1.343,35.885,0,34.228,0z"/>
</g>
<g>
	<path fill="#808080" d="M71.456,0H40.228c-1.657,0-3,1.343-3,3v31.228c0,1.657,1.343,3,3,3h10.215
		c-0.003-0.632-0.02-1.91-0.029-3.554c-6.151,1.336-7.449-2.964-7.449-2.964c-1.006-2.555-2.455-3.235-2.455-3.235
		c-2.008-1.372,0.152-1.344,0.152-1.344c2.219,0.156,3.387,2.279,3.387,2.279c1.973,3.379,5.176,2.404,6.436,1.837
		c0.201-1.429,0.772-2.404,1.404-2.956c-4.91-0.558-10.073-2.455-10.073-10.929c0-2.414,0.862-4.388,2.276-5.934
		c-0.227-0.559-0.986-2.808,0.217-5.852c0,0,1.857-0.595,6.081,2.267c1.764-0.49,3.656-0.736,5.536-0.744
		c1.878,0.009,3.77,0.254,5.536,0.744c4.222-2.862,6.075-2.267,6.075-2.267c1.206,3.044,0.447,5.293,0.22,5.852
		c1.417,1.546,2.273,3.52,2.273,5.934c0,8.495-5.17,10.365-10.097,10.912c0.794,0.683,1.501,2.032,1.501,4.095
		c0,2.736-0.023,4.965-0.026,5.859h10.048c1.657,0,3-1.343,3-3V3C74.456,1.343,73.113,0,71.456,0z"/>
</g>
</svg>
