<?xml version="1.0" encoding="utf-8"?>
<!-- Generator: Adobe Illustrator 17.1.0, SVG Export Plug-In . SVG Version: 6.00 Build 0)  -->
<!DOCTYPE svg PUBLIC "-//W3C//DTD SVG 1.1 Tiny//EN" "http://www.w3.org/Graphics/SVG/1.1/DTD/svg11-tiny.dtd">
<svg version="1.1" baseProfile="tiny" id="Layer_1" xmlns="http://www.w3.org/2000/svg" xmlns:xlink="http://www.w3.org/1999/xlink"
	 x="0px" y="0px" viewBox="0 0 74.456 37.228" xml:space="preserve">
<path fill="#5EA9DD" d="M71.456,0H40.228c-1.657,0-3,1.343-3,3v31.228c0,1.657,1.343,3,3,3h31.228c1.657,0,3-1.343,3-3V3
	C74.456,1.343,73.113,0,71.456,0z M69.09,12.114c-0.017,0.028-0.034,0.055-0.052,0.081c-0.639,0.919-1.406,1.713-2.307,2.378
	c-0.066,0.049-0.098,0.1-0.095,0.187c0.036,0.968-0.026,1.931-0.193,2.885c-0.297,1.701-0.866,3.306-1.72,4.806
	c-1.463,2.57-3.499,4.536-6.186,5.802c-1.635,0.77-3.363,1.178-5.164,1.284c-1.122,0.066-2.238,0.027-3.348-0.159
	c-1.799-0.302-3.479-0.927-5.04-1.872c-0.081-0.049-0.161-0.101-0.242-0.152c1.314,0.124,2.604,0.022,3.87-0.334
	c1.269-0.356,2.422-0.939,3.456-1.764c-1.062-0.057-2.019-0.384-2.869-1.015c-0.789-0.586-1.823-2.056-1.73-2.469
	c0.726,0.131,1.445,0.106,2.162-0.099c-1.151-0.277-2.111-0.856-2.853-1.776c-0.744-0.923-1.108-1.981-1.109-3.197
	c0.714,0.378,1.439,0.588,2.22,0.603c-1.054-0.766-1.762-1.764-2.051-3.036c-0.289-1.273-0.106-2.482,0.539-3.637
	c0.036,0.038,0.058,0.06,0.079,0.083c0.37,0.398,0.725,0.812,1.114,1.191c1.059,1.031,2.26,1.866,3.587,2.519
	c1.71,0.841,3.519,1.312,5.42,1.436c0.14,0.009,0.151-0.003,0.124-0.14c-0.129-0.646-0.13-1.292-0.014-1.941
	c0.351-1.958,1.953-3.592,3.903-3.969c0.256-0.049,0.516-0.076,0.774-0.112c0.165,0,0.329,0,0.494,0
	c0.089,0.01,0.177,0.02,0.266,0.03c1.189,0.132,2.21,0.615,3.055,1.463c0.076,0.077,0.145,0.091,0.246,0.069
	c1.018-0.221,1.981-0.585,2.886-1.101c0.035-0.02,0.072-0.037,0.108-0.055c0.007,0.008,0.014,0.016,0.021,0.025
	c-0.393,1.143-1.111,2.033-2.127,2.696c0.965-0.103,1.884-0.361,2.775-0.744C69.091,12.101,69.093,12.109,69.09,12.114z"/>
<path fill="#40326B" d="M34.228,0H3C1.343,0,0,1.343,0,3v31.228c0,1.657,1.343,3,3,3h31.228c1.657,0,3-1.343,3-3V3
	C37.228,1.343,35.885,0,34.228,0z M31.862,12.114c-0.017,0.028-0.034,0.055-0.052,0.081c-0.639,0.919-1.406,1.713-2.307,2.378
	c-0.066,0.049-0.098,0.1-0.095,0.187c0.036,0.968-0.026,1.931-0.193,2.885c-0.297,1.701-0.866,3.306-1.72,4.806
	c-1.463,2.57-3.499,4.536-6.186,5.802c-1.635,0.77-3.363,1.178-5.164,1.284c-1.122,0.066-2.238,0.027-3.348-0.159
	C11,29.076,9.32,28.451,7.759,27.507c-0.081-0.049-0.161-0.101-0.242-0.152c1.314,0.124,2.604,0.022,3.87-0.334
	c1.269-0.356,2.422-0.939,3.456-1.764c-1.062-0.057-2.019-0.384-2.869-1.015c-0.789-0.586-1.823-2.056-1.73-2.469
	c0.726,0.131,1.445,0.106,2.162-0.099c-1.151-0.277-2.111-0.856-2.853-1.776c-0.744-0.923-1.108-1.981-1.109-3.197
	c0.714,0.378,1.439,0.588,2.22,0.603c-1.054-0.766-1.762-1.764-2.051-3.036c-0.289-1.273-0.106-2.482,0.539-3.637
	c0.036,0.038,0.058,0.06,0.079,0.083c0.37,0.398,0.725,0.812,1.114,1.191c1.059,1.031,2.26,1.866,3.587,2.519
	c1.71,0.841,3.519,1.312,5.42,1.436c0.14,0.009,0.151-0.003,0.124-0.14c-0.129-0.646-0.13-1.292-0.014-1.941
	c0.351-1.958,1.953-3.592,3.903-3.969c0.256-0.049,0.516-0.076,0.774-0.112c0.165,0,0.329,0,0.494,0
	c0.089,0.01,0.177,0.02,0.266,0.03c1.189,0.132,2.21,0.615,3.055,1.463c0.076,0.077,0.145,0.091,0.246,0.069
	c1.018-0.221,1.981-0.585,2.886-1.101c0.035-0.02,0.072-0.037,0.108-0.055c0.007,0.008,0.014,0.016,0.021,0.025
	c-0.393,1.143-1.111,2.033-2.127,2.696c0.965-0.103,1.884-0.361,2.775-0.744C31.863,12.101,31.865,12.109,31.862,12.114z"/>
</svg>
