<?xml version="1.0" encoding="utf-8"?>
<!-- Generator: Adobe Illustrator 17.1.0, SVG Export Plug-In . SVG Version: 6.00 Build 0)  -->
<!DOCTYPE svg PUBLIC "-//W3C//DTD SVG 1.1 Tiny//EN" "http://www.w3.org/Graphics/SVG/1.1/DTD/svg11-tiny.dtd">
<svg version="1.1" baseProfile="tiny" id="Layer_1" xmlns="http://www.w3.org/2000/svg" xmlns:xlink="http://www.w3.org/1999/xlink"
	 x="0px" y="0px" viewBox="0 0 74.456 37.228" xml:space="preserve">
<path fill="#40326B" d="M34.228,0H3C1.343,0,0,1.343,0,3v31.228c0,1.657,1.343,3,3,3h18.465V22.811h-4.851v-5.618h4.851v-4.143
	c0-4.808,2.937-7.427,7.226-7.427c2.055,0,3.821,0.153,4.335,0.221v5.025l-2.975,0.001c-2.333,0-2.785,1.109-2.785,2.735v3.587
	h5.564l-0.724,5.618h-4.839v14.417h6.961c1.657,0,3-1.343,3-3V3C37.228,1.343,35.885,0,34.228,0z"/>
<path fill="#40326B" d="M34.228,0H3C1.343,0,0,1.343,0,3v31.228c0,1.657,1.343,3,3,3h18.465V22.811h-4.851v-5.618h4.851v-4.143
	c0-4.808,2.937-7.427,7.226-7.427c2.055,0,3.821,0.153,4.335,0.221v5.025l-2.975,0.001c-2.333,0-2.785,1.109-2.785,2.735v3.587
	h5.564l-0.724,5.618h-4.839v14.417h6.961c1.657,0,3-1.343,3-3V3C37.228,1.343,35.885,0,34.228,0z"/>
<path fill="#3B5998" d="M71.456,0H40.228c-1.657,0-3,1.343-3,3v31.228c0,1.657,1.343,3,3,3h18.465V22.811h-4.851v-5.618h4.851
	v-4.143c0-4.808,2.937-7.427,7.226-7.427c2.055,0,3.821,0.153,4.335,0.221v5.025l-2.975,0.001c-2.333,0-2.785,1.109-2.785,2.735
	v3.587h5.564l-0.724,5.618h-4.839v14.417h6.961c1.657,0,3-1.343,3-3V3C74.456,1.343,73.113,0,71.456,0z"/>
</svg>
