<?xml version="1.0" encoding="utf-8"?>
<!-- Generator: Adobe Illustrator 17.1.0, SVG Export Plug-In . SVG Version: 6.00 Build 0)  -->
<!DOCTYPE svg PUBLIC "-//W3C//DTD SVG 1.1 Tiny//EN" "http://www.w3.org/Graphics/SVG/1.1/DTD/svg11-tiny.dtd">
<svg version="1.1" baseProfile="tiny" id="Layer_1" xmlns="http://www.w3.org/2000/svg" xmlns:xlink="http://www.w3.org/1999/xlink"
	 x="0px" y="0px" viewBox="0 0 74.456 37.228" xml:space="preserve">
<path fill="#40326B" d="M34.228,0H3C1.343,0,0,1.343,0,3v31.228c0,1.657,1.343,3,3,3h31.228c1.657,0,3-1.343,3-3V3
	C37.228,1.343,35.885,0,34.228,0z M23.291,31.57c-5.174,1.124-9.172-2.071-9.204-7.366c-0.015-2.449,0.005-4.992,0.005-7.553
	c-0.988-0.052-1.85-0.004-2.949-0.062c0-1.133,0.028-3.993,0.028-3.993s0.259-0.011,0.495-0.119
	c2.815-1.287,4.101-3.635,4.633-6.531l0.044-0.514c1.22,0,2.646,0.002,4.04,0.002c0,2.1,0,4.154,0,6.419c1.69,0,3.236,0,4.891,0
	c0,1.657,0,3.104,0,4.76c-1.538,0-3.087,0-4.811,0c0,2.563-0.008,4.804,0.002,7.044c0.012,2.594,0.874,3.349,3.417,3.016
	c0.369-0.048,0.734-0.122,1.151-0.193c0.168,0.404,0.691,1.931,0.691,1.931l0.604,2.131C26.326,30.541,24.847,31.232,23.291,31.57z"
	/>
<path fill="#36465D" d="M71.456,0H40.228c-1.657,0-3,1.343-3,3v31.228c0,1.657,1.343,3,3,3h31.228c1.657,0,3-1.343,3-3V3
	C74.456,1.343,73.113,0,71.456,0z M60.519,31.57c-5.174,1.124-9.172-2.071-9.204-7.366c-0.015-2.449,0.005-4.992,0.005-7.553
	c-0.988-0.052-1.85-0.004-2.949-0.062c0-1.133,0.028-3.993,0.028-3.993s0.259-0.011,0.495-0.119
	c2.815-1.287,4.101-3.635,4.633-6.531l0.044-0.514c1.22,0,2.646,0.002,4.04,0.002c0,2.1,0,4.154,0,6.419c1.69,0,3.236,0,4.891,0
	c0,1.657,0,3.104,0,4.76c-1.538,0-3.087,0-4.811,0c0,2.563-0.008,4.804,0.002,7.044c0.012,2.594,0.874,3.349,3.417,3.016
	c0.369-0.048,0.734-0.122,1.151-0.193c0.168,0.404,0.691,1.931,0.691,1.931l0.604,2.131C63.554,30.541,62.075,31.232,60.519,31.57z"
	/>
</svg>
