<?xml version="1.0" encoding="utf-8"?>
<!-- Generator: Adobe Illustrator 24.0.1, SVG Export Plug-In . SVG Version: 6.00 Build 0)  -->
<svg version="1.1" id="Layer_1" xmlns="http://www.w3.org/2000/svg" xmlns:xlink="http://www.w3.org/1999/xlink" x="0px" y="0px"
	 viewBox="0 0 455 176" style="enable-background:new 0 0 455 176;" xml:space="preserve">
<style type="text/css">
	.st0{fill:#41326B;}
	.st1{fill:#FFFFFF;}
</style>
<path class="st0" d="M455,167.4c0,4.7-4.1,8.6-8.9,8.6H8.5c-4.7,0-8.5-3.9-8.5-8.6V8.8C0,4.1,3.8,0,8.5,0h437.6
	c4.7,0,8.9,4.1,8.9,8.8V167.4z"/>
<g>
	<g>
		<path class="st1" d="M110.3,84.3c-0.6-1.8-1-2.9-1-8.6v-11c0-6.5-2.2-8.9-7.2-8.9h-3.8v28.5h-11V14.4h16.6
			c11.4,0,16.3,5.3,16.3,16.1V36c0,7.2-2.3,11.9-7.2,14.2c5.5,2.3,7.3,7.6,7.3,14.9v10.8c0,3.4,0.1,5.9,1.2,8.5H110.3z M98.3,24.4
			v21.5h4.3c4.1,0,6.6-1.8,6.6-7.4v-6.9c0-5-1.7-7.2-5.6-7.2C103.6,24.4,98.3,24.4,98.3,24.4z"/>
		<path class="st1" d="M138.4,43.9h15.1v10h-15.1v20.5h19v10h-30V14.4h30v10h-19V43.9z"/>
		<path class="st1" d="M175.2,45.5h14.2v10h-14.2v28.9h-11V14.4h29.1v10h-18.1V45.5z"/>
		<path class="st1" d="M209.1,14.4v54c0,5,2.2,6.8,5.7,6.8c3.5,0,5.7-1.8,5.7-6.8v-54h10.4v53.3c0,11.2-5.6,17.6-16.4,17.6
			c-10.8,0-16.4-6.4-16.4-17.6V14.4H209.1z"/>
		<path class="st1" d="M254.9,45.4h15.4v22.2c0,11.2-5.6,17.6-16.4,17.6c-10.8,0-16.4-6.4-16.4-17.6V31.2c0-11.2,5.6-17.6,16.4-17.6
			c10.8,0,16.4,6.4,16.4,17.6V38h-10.4v-7.5c0-5-2.2-6.9-5.7-6.9c-3.5,0-5.7,1.9-5.7,6.9v37.8c0,5,2.2,6.8,5.7,6.8
			c3.5,0,5.7-1.8,5.7-6.8V55.3h-5L254.9,45.4L254.9,45.4z"/>
		<path class="st1" d="M288.3,43.9h15.1v10h-15.1v20.5h19v10h-30V14.4h30v10h-19V43.9z"/>
		<path class="st1" d="M110.3,162.6c-0.6-1.8-1-2.9-1-8.6v-11c0-6.5-2.2-8.9-7.2-8.9h-3.8v28.5h-11V92.7h16.6
			c11.4,0,16.3,5.3,16.3,16.1v5.5c0,7.2-2.3,11.9-7.2,14.2c5.5,2.3,7.3,7.6,7.3,14.9v10.8c0,3.4,0.1,5.9,1.2,8.5H110.3z M98.3,102.6
			v21.5h4.3c4.1,0,6.6-1.8,6.6-7.4v-6.9c0-5-1.7-7.2-5.6-7.2C103.6,102.6,98.3,102.6,98.3,102.6z"/>
		<path class="st1" d="M138.4,122.1h15.1v10h-15.1v20.5h19v10h-30V92.7h30v10h-19V122.1z"/>
		<path class="st1" d="M179,91.9c10.7,0,16.2,6.4,16.2,17.6v2.2h-10.4v-2.9c0-5-2-6.9-5.5-6.9s-5.5,1.9-5.5,6.9
			c0,14.4,21.5,17.1,21.5,37.1c0,11.2-5.6,17.6-16.4,17.6s-16.4-6.4-16.4-17.6v-4.3h10.4v5c0,5,2.2,6.8,5.7,6.8s5.7-1.8,5.7-6.8
			c0-14.4-21.5-17.1-21.5-37.1C162.8,98.2,168.3,91.9,179,91.9z"/>
		<path class="st1" d="M198.4,92.7h34v10h-11.5v60h-11v-60h-11.5L198.4,92.7L198.4,92.7z"/>
		<path class="st1" d="M260.1,162.6c-0.6-1.8-1-2.9-1-8.6v-11c0-6.5-2.2-8.9-7.2-8.9h-3.8v28.5h-11V92.7h16.6
			c11.4,0,16.3,5.3,16.3,16.1v5.5c0,7.2-2.3,11.9-7.2,14.2c5.5,2.3,7.3,7.6,7.3,14.9v10.8c0,3.4,0.1,5.9,1.2,8.5H260.1z
			 M248.2,102.6v21.5h4.3c4.1,0,6.6-1.8,6.6-7.4v-6.9c0-5-1.7-7.2-5.6-7.2C253.5,102.6,248.2,102.6,248.2,102.6z"/>
		<path class="st1" d="M276.4,109.4c0-11.2,5.9-17.6,16.7-17.6s16.7,6.4,16.7,17.6v36.4c0,11.2-5.9,17.6-16.7,17.6
			c-10.8,0-16.7-6.4-16.7-17.6V109.4z M287.4,146.5c0,5,2.2,6.9,5.7,6.9c3.5,0,5.7-1.9,5.7-6.9v-37.8c0-5-2.2-6.9-5.7-6.9
			c-3.5,0-5.7,1.9-5.7,6.9V146.5z"/>
		<path class="st1" d="M316,109.4c0-11.2,5.9-17.6,16.7-17.6s16.7,6.4,16.7,17.6v36.4c0,11.2-5.9,17.6-16.7,17.6
			c-10.8,0-16.7-6.4-16.7-17.6V109.4z M327,146.5c0,5,2.2,6.9,5.7,6.9c3.5,0,5.7-1.9,5.7-6.9v-37.8c0-5-2.2-6.9-5.7-6.9
			c-3.5,0-5.7,1.9-5.7,6.9V146.5z"/>
		<path class="st1" d="M379.8,142.3l7.5-49.7h15.3v69.9h-10.4v-50.2l-7.6,50.2h-10.4l-8.2-49.5v49.5h-9.6V92.7h15.3L379.8,142.3z"/>
		<path class="st1" d="M425.3,91.9c10.7,0,16.2,6.4,16.2,17.6v2.2h-10.4v-2.9c0-5-2-6.9-5.5-6.9s-5.5,1.9-5.5,6.9
			c0,14.4,21.5,17.1,21.5,37.1c0,11.2-5.6,17.6-16.4,17.6c-10.8,0-16.4-6.4-16.4-17.6v-4.3h10.4v5c0,5,2.2,6.8,5.7,6.8
			c3.5,0,5.7-1.8,5.7-6.8c0-14.4-21.5-17.1-21.5-37.1C409.1,98.2,414.6,91.9,425.3,91.9z"/>
	</g>
	<g>
		<path class="st1" d="M68.1,81.5H23.5c-2.5,0-4.4-2-4.4-4.4l-1.7-29.7c0-2.5,2-4.4,4.4-4.4h48c2.5,0,4.4,2,4.4,4.4l-1.6,29.6
			C72.5,79.5,70.6,81.5,68.1,81.5z"/>
		<path class="st1" d="M62.6,136.3c-0.1,2.4-2,4.3-4.3,4.3H33.2c-2.3,0-4.1-1.9-4.3-4.3c0-0.1,0-0.3,0-0.5l2-16.1
			c4.3,2.8,9.4,4.4,14.9,4.4c5.6,0,10.7-1.7,15.1-4.5l1.7,16.3C62.6,136,62.6,136.2,62.6,136.3z"/>
		<path class="st1" d="M45.8,85c-15.1,0-27.4,3.5-27.6,7.8c0.1,9.6,5.2,18.1,12.7,22.8c4.3,2.8,9.4,4.4,14.9,4.4
			c5.6,0,10.7-1.7,15.1-4.5c7.4-4.9,12.4-13.2,12.5-22.7C73.2,88.5,60.9,85,45.8,85z M45.8,96.9c-10.9,0-19.8-1.8-19.8-4
			s8.8-4,19.8-4s19.8,1.8,19.8,4S56.7,96.9,45.8,96.9z"/>
	</g>
</g>
</svg>
