<?xml version="1.0" encoding="UTF-8" standalone="no"?>
<!DOCTYPE svg PUBLIC "-//W3C//DTD SVG 1.1//EN" "http://www.w3.org/Graphics/SVG/1.1/DTD/svg11.dtd">
<svg version="1.1" xmlns="http://www.w3.org/2000/svg" xmlns:xlink="http://www.w3.org/1999/xlink" preserveAspectRatio="xMidYMid meet" viewBox="0 0 50 50" width="50" height="50"><defs><path d="M27.05 6.57L27.17 6.63L27.28 6.72L27.37 6.83L27.44 6.95L27.48 7.09L27.49 7.24L27.49 8.62L27.48 8.76L27.44 8.9L27.37 9.02L27.28 9.13L27.17 9.22L27.05 9.29L26.91 9.33L26.76 9.34L25.93 9.34L25.96 9.46L26.02 9.76L26.04 10.07L26.04 24.7L41.53 24.7L41.68 24.7L41.84 24.73L41.98 24.77L42.12 24.83L42.25 24.91L42.37 24.99L42.48 25.09L42.58 25.2L42.67 25.32L42.74 25.45L42.8 25.59L42.84 25.73L42.87 25.89L42.88 26.04L42.88 26.18L42.87 26.34L42.84 26.49L42.8 26.64L42.74 26.78L42.67 26.91L42.58 27.03L42.48 27.14L42.37 27.24L42.25 27.32L42.12 27.39L41.98 27.45L41.84 27.5L41.68 27.52L41.53 27.53L40.8 27.53L40.78 27.93L40.58 29.15L40.25 30.34L39.81 31.48L39.25 32.57L38.59 33.6L37.83 34.58L36.97 35.48L36.02 36.32L35 37.08L33.89 37.75L32.72 38.34L32.25 38.52L32.25 42.38L32.36 42.4L32.64 42.52L32.89 42.71L33.07 42.95L33.19 43.23L33.24 43.55L33.24 44L33.19 44.31L33.07 44.6L32.89 44.84L32.64 45.03L32.36 45.15L32.04 45.19L19.22 45.19L18.9 45.15L18.62 45.03L18.38 44.84L18.19 44.6L18.07 44.31L18.03 44L18.03 43.55L18.07 43.23L18.19 42.95L18.38 42.71L18.62 42.52L18.9 42.4L19.02 42.38L19.02 38.17L18.19 37.75L17.08 37.08L16.06 36.32L15.11 35.48L14.25 34.58L13.49 33.6L12.83 32.57L12.27 31.48L11.82 30.34L11.5 29.15L11.3 27.93L11.28 27.53L10.72 27.53L10.57 27.52L10.41 27.5L10.27 27.45L10.13 27.39L10 27.32L9.88 27.24L9.77 27.14L9.67 27.03L9.58 26.91L9.51 26.78L9.45 26.64L9.41 26.49L9.38 26.34L9.38 26.18L9.38 26.04L9.38 25.89L9.41 25.73L9.45 25.59L9.51 25.45L9.58 25.32L9.67 25.2L9.77 25.09L9.88 24.99L10 24.91L10.13 24.83L10.27 24.77L10.41 24.73L10.57 24.7L10.72 24.7L11.17 24.7L11.17 10.07L11.19 9.76L11.24 9.46L11.28 9.34L10.1 9.34L9.96 9.33L9.82 9.29L9.7 9.22L9.59 9.13L9.5 9.02L9.43 8.9L9.39 8.76L9.38 8.62L9.38 7.24L9.39 7.09L9.43 6.95L9.5 6.83L9.59 6.72L9.7 6.63L9.82 6.57L9.96 6.52L10.1 6.51L26.76 6.51L26.91 6.52L27.05 6.57ZM40.71 22.61L40.84 22.65L40.97 22.72L41.09 22.79L41.19 22.89L41.28 22.99L41.36 23.11L41.42 23.23L41.47 23.37L41.5 23.51L41.51 23.65L41.51 23.99L26.64 23.99L26.64 23.65L26.65 23.51L26.68 23.37L26.72 23.23L26.79 23.11L26.86 22.99L26.96 22.89L27.06 22.79L27.18 22.72L27.3 22.65L27.44 22.61L27.58 22.58L27.72 22.57L40.42 22.57L40.57 22.58L40.71 22.61Z" id="a6utJKn20h"></path><linearGradient id="gradientgoKeOO1wI" gradientUnits="userSpaceOnUse" x1="9.38" y1="26.21" x2="42.88" y2="26.21"><stop style="stop-color: #ff0990;stop-opacity: 1" offset="0%"></stop><stop style="stop-color: #03abff;stop-opacity: 1" offset="100%"></stop></linearGradient><path d="M14.36 11C14.67 11 14.91 11.24 14.91 11.55C14.91 11.66 14.91 11.44 14.91 11.55C14.91 11.85 14.67 12.1 14.36 12.1C14.03 12.1 13.58 12.1 13.24 12.1C12.94 12.1 12.69 11.85 12.69 11.55C12.69 11.44 12.69 11.66 12.69 11.55C12.69 11.24 12.94 11 13.24 11C13.58 11 14.03 11 14.36 11Z" id="a2248DF4Ww"></path></defs><g><g><g><use xlink:href="#a6utJKn20h" opacity="1" fill="url(#gradientgoKeOO1wI)"></use></g><g><use xlink:href="#a2248DF4Ww" opacity="1" fill="#ffffff" fill-opacity="1"></use></g></g></g></svg>