<?xml version="1.0" encoding="utf-8"?>
<!-- Generator: Adobe Illustrator 17.1.0, SVG Export Plug-In . SVG Version: 6.00 Build 0)  -->
<!DOCTYPE svg PUBLIC "-//W3C//DTD SVG 1.1 Tiny//EN" "http://www.w3.org/Graphics/SVG/1.1/DTD/svg11-tiny.dtd">
<svg version="1.1" baseProfile="tiny" id="Layer_1" xmlns="http://www.w3.org/2000/svg" xmlns:xlink="http://www.w3.org/1999/xlink"
	 x="0px" y="0px" viewBox="0 0 338.334 40.561" xml:space="preserve">
<g>
	<path fill="#41326B" d="M169.167,20.601c0,10.978-8.982,19.959-19.959,19.959H3.428C1.535,40.561,0,39.026,0,37.132V3.428
		C0,1.535,1.535,0,3.428,0h145.543c11.108,0,20.196,9.088,20.196,20.196V20.601z"/>
</g>
<g>
	<path fill="#FFFFFF" d="M12.756,24.233c1.42,0,2.129-0.486,2.129-1.457c0-0.299-0.062-0.553-0.188-0.764
		c-0.126-0.209-0.297-0.391-0.512-0.545s-0.46-0.287-0.735-0.4c-0.275-0.111-0.567-0.223-0.875-0.336
		c-0.355-0.121-0.691-0.258-1.009-0.412s-0.593-0.336-0.826-0.547s-0.418-0.459-0.553-0.75c-0.136-0.289-0.203-0.639-0.203-1.049
		c0-0.85,0.289-1.514,0.868-1.99c0.579-0.475,1.377-0.713,2.395-0.713c0.589,0,1.123,0.062,1.604,0.188
		c0.481,0.127,0.834,0.266,1.058,0.414l-0.434,1.105c-0.196-0.121-0.488-0.24-0.876-0.355c-0.388-0.117-0.838-0.176-1.352-0.176
		c-0.261,0-0.504,0.027-0.728,0.084c-0.225,0.057-0.421,0.141-0.589,0.252s-0.301,0.254-0.398,0.428
		c-0.099,0.172-0.147,0.375-0.147,0.609c0,0.262,0.051,0.48,0.154,0.658c0.103,0.178,0.247,0.334,0.434,0.469
		s0.404,0.26,0.651,0.371s0.521,0.225,0.819,0.336c0.42,0.168,0.806,0.336,1.155,0.504c0.351,0.168,0.653,0.369,0.911,0.604
		c0.256,0.232,0.455,0.51,0.595,0.832s0.21,0.713,0.21,1.17c0,0.85-0.311,1.504-0.932,1.961c-0.62,0.457-1.496,0.686-2.626,0.686
		c-0.383,0-0.735-0.025-1.057-0.076c-0.322-0.051-0.609-0.111-0.861-0.182c-0.253-0.07-0.47-0.145-0.651-0.225
		c-0.183-0.08-0.325-0.146-0.428-0.203l0.406-1.121c0.215,0.121,0.542,0.258,0.98,0.406C11.584,24.159,12.121,24.233,12.756,24.233z
		"/>
	<path fill="#FFFFFF" d="M23.667,24.989c-0.299,0.076-0.693,0.154-1.184,0.238s-1.058,0.127-1.702,0.127
		c-0.56,0-1.031-0.082-1.414-0.246c-0.383-0.162-0.691-0.395-0.925-0.693s-0.401-0.65-0.504-1.057s-0.154-0.857-0.154-1.352v-4.09
		h1.303v3.809c0,0.889,0.14,1.523,0.42,1.906s0.752,0.574,1.415,0.574c0.14,0,0.284-0.006,0.434-0.016
		c0.149-0.008,0.29-0.02,0.421-0.033c0.13-0.016,0.249-0.029,0.356-0.043s0.185-0.029,0.231-0.049v-6.148h1.303V24.989z"/>
	<path fill="#FFFFFF" d="M27.21,18.239c0.159-0.104,0.399-0.211,0.722-0.322s0.693-0.168,1.113-0.168
		c0.522,0,0.987,0.094,1.394,0.279c0.406,0.188,0.749,0.449,1.029,0.785s0.492,0.738,0.638,1.205
		c0.145,0.467,0.217,0.979,0.217,1.539c0,0.59-0.087,1.119-0.259,1.59c-0.174,0.473-0.418,0.871-0.735,1.197
		c-0.318,0.328-0.701,0.58-1.148,0.758c-0.448,0.176-0.953,0.266-1.513,0.266c-0.607,0-1.145-0.043-1.611-0.127
		s-0.85-0.168-1.148-0.252V14.555l1.303-0.225V18.239z M27.21,24.065c0.131,0.037,0.315,0.072,0.554,0.105
		c0.237,0.031,0.534,0.049,0.889,0.049c0.7,0,1.261-0.232,1.681-0.693c0.421-0.463,0.631-1.119,0.631-1.969
		c0-0.373-0.038-0.723-0.112-1.049c-0.075-0.328-0.196-0.609-0.364-0.848s-0.385-0.426-0.651-0.561
		c-0.266-0.135-0.586-0.203-0.959-0.203c-0.355,0-0.682,0.061-0.98,0.182s-0.527,0.248-0.687,0.379V24.065z"/>
	<path fill="#FFFFFF" d="M34.156,18.126c0.299-0.074,0.693-0.152,1.184-0.236s1.058-0.127,1.702-0.127
		c0.467,0,0.858,0.062,1.176,0.189c0.317,0.125,0.584,0.311,0.799,0.553c0.065-0.047,0.168-0.111,0.308-0.195
		c0.141-0.084,0.313-0.166,0.519-0.246c0.205-0.078,0.435-0.148,0.687-0.209s0.522-0.092,0.812-0.092
		c0.56,0,1.018,0.082,1.372,0.246c0.354,0.162,0.633,0.395,0.833,0.691c0.201,0.301,0.337,0.654,0.406,1.064
		c0.07,0.412,0.105,0.859,0.105,1.346v4.09h-1.303v-3.811c0-0.43-0.021-0.797-0.062-1.105s-0.122-0.564-0.238-0.771
		c-0.117-0.205-0.275-0.355-0.477-0.455c-0.201-0.098-0.46-0.146-0.777-0.146c-0.438,0-0.801,0.059-1.085,0.176
		c-0.285,0.117-0.479,0.221-0.581,0.314c0.074,0.242,0.13,0.51,0.168,0.799c0.037,0.289,0.056,0.592,0.056,0.91v4.09h-1.303v-3.811
		c0-0.43-0.023-0.797-0.069-1.105c-0.047-0.309-0.129-0.564-0.245-0.771c-0.117-0.205-0.276-0.355-0.477-0.455
		c-0.201-0.098-0.455-0.146-0.764-0.146c-0.131,0-0.271,0.006-0.42,0.014c-0.149,0.01-0.292,0.021-0.427,0.035
		c-0.136,0.014-0.26,0.031-0.371,0.049c-0.112,0.02-0.188,0.033-0.225,0.043V25.2h-1.303V18.126z"/>
	<path fill="#FFFFFF" d="M46.859,16.6c-0.233,0-0.432-0.078-0.595-0.23c-0.164-0.154-0.245-0.363-0.245-0.625
		c0-0.26,0.081-0.469,0.245-0.623c0.163-0.154,0.361-0.23,0.595-0.23s0.432,0.076,0.596,0.23c0.163,0.154,0.245,0.363,0.245,0.623
		c0,0.262-0.082,0.471-0.245,0.625C47.291,16.522,47.093,16.6,46.859,16.6z M47.517,25.2h-1.303v-7.283h1.303V25.2z"/>
	<path fill="#FFFFFF" d="M50.976,17.917h2.759v1.092h-2.759v3.361c0,0.365,0.028,0.666,0.084,0.904s0.141,0.424,0.252,0.561
		c0.112,0.135,0.252,0.23,0.421,0.287c0.168,0.055,0.363,0.084,0.588,0.084c0.392,0,0.707-0.045,0.945-0.135
		c0.238-0.088,0.403-0.15,0.497-0.188l0.252,1.078c-0.131,0.064-0.359,0.146-0.687,0.244c-0.326,0.1-0.7,0.148-1.12,0.148
		c-0.495,0-0.903-0.064-1.226-0.189c-0.322-0.127-0.581-0.316-0.777-0.568s-0.334-0.562-0.413-0.93
		c-0.079-0.369-0.119-0.797-0.119-1.283v-6.498l1.303-0.225V17.917z"/>
	<path fill="#FFFFFF" d="M60.976,17.735c0.522,0,0.964,0.066,1.323,0.203c0.359,0.135,0.648,0.326,0.868,0.574
		c0.22,0.246,0.376,0.541,0.47,0.881c0.093,0.342,0.14,0.717,0.14,1.129v4.551c-0.112,0.02-0.269,0.045-0.469,0.078
		c-0.201,0.031-0.428,0.062-0.68,0.09c-0.252,0.029-0.525,0.055-0.819,0.078s-0.586,0.035-0.875,0.035
		c-0.411,0-0.789-0.043-1.135-0.127s-0.645-0.217-0.896-0.398s-0.448-0.424-0.588-0.723c-0.141-0.299-0.21-0.658-0.21-1.078
		c0-0.4,0.081-0.746,0.245-1.035c0.163-0.289,0.385-0.523,0.665-0.701s0.606-0.309,0.98-0.393c0.373-0.084,0.766-0.125,1.177-0.125
		c0.13,0,0.266,0.006,0.405,0.021c0.141,0.014,0.273,0.031,0.399,0.055s0.236,0.045,0.329,0.062c0.094,0.02,0.159,0.033,0.196,0.043
		v-0.363c0-0.215-0.023-0.428-0.07-0.639c-0.047-0.209-0.131-0.396-0.252-0.561c-0.121-0.162-0.287-0.293-0.497-0.391
		c-0.21-0.1-0.483-0.148-0.819-0.148c-0.43,0-0.806,0.031-1.127,0.092c-0.322,0.061-0.563,0.123-0.722,0.189l-0.154-1.078
		c0.168-0.076,0.448-0.148,0.841-0.219C60.094,17.77,60.518,17.735,60.976,17.735z M61.088,24.26c0.309,0,0.582-0.006,0.819-0.02
		c0.238-0.016,0.437-0.041,0.596-0.078v-2.17c-0.094-0.047-0.245-0.088-0.455-0.119c-0.21-0.033-0.465-0.049-0.764-0.049
		c-0.196,0-0.403,0.014-0.623,0.041s-0.42,0.086-0.603,0.176c-0.182,0.088-0.334,0.209-0.455,0.363s-0.182,0.357-0.182,0.609
		c0,0.467,0.149,0.791,0.448,0.973C60.169,24.171,60.575,24.26,61.088,24.26z"/>
	<path fill="#FFFFFF" d="M74.001,21.137c0.149,0.188,0.339,0.432,0.567,0.736c0.229,0.303,0.465,0.639,0.707,1.008
		c0.243,0.369,0.483,0.754,0.722,1.156c0.238,0.4,0.441,0.789,0.609,1.162h-1.484c-0.188-0.355-0.391-0.715-0.609-1.078
		c-0.22-0.365-0.441-0.713-0.666-1.045c-0.224-0.33-0.445-0.641-0.665-0.93c-0.22-0.291-0.418-0.543-0.595-0.758
		c-0.122,0.01-0.245,0.014-0.371,0.014s-0.255,0-0.386,0h-1.218V25.2h-1.359v-9.566c0.383-0.094,0.811-0.156,1.282-0.189
		c0.471-0.031,0.903-0.049,1.295-0.049c1.363,0,2.402,0.258,3.116,0.771c0.715,0.514,1.071,1.279,1.071,2.297
		c0,0.643-0.17,1.195-0.511,1.652S74.664,20.913,74.001,21.137z M71.942,16.587c-0.579,0-1.022,0.014-1.33,0.041v3.656h0.966
		c0.467,0,0.887-0.023,1.261-0.07c0.373-0.047,0.688-0.135,0.945-0.266s0.455-0.316,0.595-0.555
		c0.141-0.236,0.211-0.553,0.211-0.945c0-0.363-0.07-0.666-0.211-0.91c-0.14-0.242-0.329-0.434-0.566-0.574
		c-0.238-0.139-0.519-0.238-0.841-0.293C72.649,16.614,72.307,16.587,71.942,16.587z"/>
	<path fill="#FFFFFF" d="M77.572,21.571c0-0.643,0.094-1.205,0.28-1.688c0.187-0.48,0.435-0.879,0.742-1.197
		c0.309-0.316,0.663-0.555,1.064-0.713c0.401-0.16,0.812-0.238,1.232-0.238c0.98,0,1.732,0.305,2.255,0.916
		c0.523,0.613,0.785,1.543,0.785,2.795c0,0.057,0,0.129,0,0.217c0,0.09-0.005,0.17-0.015,0.246h-4.985
		c0.056,0.756,0.274,1.33,0.658,1.723c0.383,0.391,0.98,0.588,1.792,0.588c0.458,0,0.843-0.039,1.156-0.119
		c0.312-0.08,0.548-0.156,0.707-0.23l0.182,1.092c-0.158,0.084-0.437,0.172-0.833,0.266c-0.397,0.094-0.848,0.141-1.352,0.141
		c-0.635,0-1.184-0.096-1.646-0.287s-0.843-0.455-1.142-0.791s-0.521-0.736-0.665-1.197C77.644,22.63,77.572,22.124,77.572,21.571z
		 M82.572,20.858c0.01-0.588-0.138-1.072-0.44-1.449c-0.304-0.379-0.722-0.568-1.254-0.568c-0.299,0-0.562,0.059-0.791,0.176
		c-0.229,0.117-0.423,0.268-0.581,0.455c-0.159,0.188-0.283,0.4-0.371,0.645c-0.089,0.242-0.147,0.49-0.176,0.742H82.572z"/>
	<path fill="#FFFFFF" d="M87.503,24.26c0.532,0,0.926-0.07,1.184-0.209c0.256-0.141,0.385-0.365,0.385-0.672
		c0-0.318-0.126-0.57-0.378-0.758c-0.252-0.186-0.668-0.396-1.247-0.629c-0.28-0.113-0.548-0.227-0.805-0.344
		s-0.479-0.254-0.666-0.414c-0.187-0.158-0.336-0.35-0.447-0.574c-0.112-0.223-0.169-0.498-0.169-0.826
		c0-0.645,0.238-1.154,0.715-1.533c0.476-0.379,1.125-0.566,1.946-0.566c0.206,0,0.411,0.012,0.616,0.035
		c0.206,0.023,0.397,0.051,0.574,0.084c0.178,0.031,0.334,0.066,0.47,0.104c0.135,0.039,0.24,0.07,0.315,0.1l-0.238,1.119
		c-0.141-0.074-0.359-0.15-0.658-0.23s-0.658-0.119-1.079-0.119c-0.364,0-0.682,0.072-0.952,0.217s-0.406,0.371-0.406,0.68
		c0,0.158,0.03,0.299,0.091,0.42s0.154,0.23,0.28,0.33c0.126,0.098,0.282,0.188,0.47,0.271c0.187,0.084,0.41,0.174,0.672,0.268
		c0.346,0.131,0.653,0.258,0.925,0.385c0.271,0.125,0.501,0.273,0.693,0.441c0.19,0.168,0.338,0.371,0.44,0.609
		s0.154,0.529,0.154,0.875c0,0.672-0.25,1.182-0.749,1.525c-0.5,0.346-1.212,0.52-2.136,0.52c-0.645,0-1.148-0.055-1.513-0.162
		s-0.612-0.188-0.742-0.244l0.237-1.121c0.149,0.057,0.388,0.141,0.715,0.252C86.526,24.206,86.961,24.26,87.503,24.26z"/>
	<path fill="#FFFFFF" d="M93.272,17.917h2.759v1.092h-2.759v3.361c0,0.365,0.028,0.666,0.084,0.904s0.141,0.424,0.252,0.561
		c0.112,0.135,0.252,0.23,0.421,0.287c0.168,0.055,0.363,0.084,0.588,0.084c0.392,0,0.707-0.045,0.945-0.135
		c0.238-0.088,0.403-0.15,0.497-0.188l0.252,1.078c-0.131,0.064-0.359,0.146-0.687,0.244c-0.326,0.1-0.7,0.148-1.12,0.148
		c-0.495,0-0.903-0.064-1.226-0.189c-0.322-0.127-0.581-0.316-0.777-0.568s-0.334-0.562-0.413-0.93
		c-0.079-0.369-0.119-0.797-0.119-1.283v-6.498l1.303-0.225V17.917z"/>
	<path fill="#FFFFFF" d="M100.373,17.762c0.112,0,0.24,0.008,0.385,0.021s0.287,0.033,0.428,0.055
		c0.14,0.023,0.268,0.047,0.385,0.07s0.203,0.045,0.259,0.064l-0.224,1.133c-0.103-0.037-0.273-0.08-0.511-0.133
		c-0.238-0.051-0.545-0.076-0.918-0.076c-0.243,0-0.483,0.025-0.721,0.076c-0.238,0.053-0.395,0.088-0.47,0.105V25.2h-1.303v-6.975
		c0.309-0.113,0.691-0.217,1.148-0.316C99.29,17.811,99.804,17.762,100.373,17.762z"/>
	<path fill="#FFFFFF" d="M109.518,21.557c0,0.58-0.084,1.102-0.252,1.568c-0.168,0.469-0.404,0.869-0.707,1.205
		c-0.304,0.336-0.665,0.596-1.086,0.777c-0.42,0.182-0.878,0.273-1.372,0.273c-0.495,0-0.952-0.092-1.373-0.273
		c-0.42-0.182-0.782-0.441-1.085-0.777c-0.304-0.336-0.539-0.736-0.707-1.205c-0.169-0.467-0.253-0.988-0.253-1.568
		c0-0.568,0.084-1.09,0.253-1.561c0.168-0.473,0.403-0.875,0.707-1.211c0.303-0.338,0.665-0.596,1.085-0.777
		c0.421-0.184,0.878-0.273,1.373-0.273c0.494,0,0.952,0.09,1.372,0.273c0.421,0.182,0.782,0.439,1.086,0.777
		c0.303,0.336,0.539,0.738,0.707,1.211C109.434,20.467,109.518,20.989,109.518,21.557z M108.16,21.557
		c0-0.82-0.185-1.473-0.553-1.953c-0.369-0.48-0.871-0.721-1.506-0.721c-0.636,0-1.137,0.24-1.506,0.721s-0.553,1.133-0.553,1.953
		c0,0.822,0.184,1.475,0.553,1.955s0.87,0.721,1.506,0.721c0.635,0,1.137-0.24,1.506-0.721
		C107.975,23.032,108.16,22.38,108.16,21.557z"/>
	<path fill="#FFFFFF" d="M117.782,21.557c0,0.58-0.084,1.102-0.252,1.568c-0.168,0.469-0.404,0.869-0.707,1.205
		c-0.304,0.336-0.665,0.596-1.086,0.777c-0.42,0.182-0.878,0.273-1.372,0.273c-0.495,0-0.952-0.092-1.373-0.273
		c-0.42-0.182-0.782-0.441-1.085-0.777c-0.304-0.336-0.539-0.736-0.707-1.205c-0.169-0.467-0.253-0.988-0.253-1.568
		c0-0.568,0.084-1.09,0.253-1.561c0.168-0.473,0.403-0.875,0.707-1.211c0.303-0.338,0.665-0.596,1.085-0.777
		c0.421-0.184,0.878-0.273,1.373-0.273c0.494,0,0.952,0.09,1.372,0.273c0.421,0.182,0.782,0.439,1.086,0.777
		c0.303,0.336,0.539,0.738,0.707,1.211C117.698,20.467,117.782,20.989,117.782,21.557z M116.424,21.557
		c0-0.82-0.185-1.473-0.553-1.953c-0.369-0.48-0.871-0.721-1.506-0.721c-0.636,0-1.137,0.24-1.506,0.721s-0.553,1.133-0.553,1.953
		c0,0.822,0.184,1.475,0.553,1.955s0.87,0.721,1.506,0.721c0.635,0,1.137-0.24,1.506-0.721
		C116.239,23.032,116.424,22.38,116.424,21.557z"/>
	<path fill="#FFFFFF" d="M119.617,18.126c0.299-0.074,0.693-0.152,1.184-0.236s1.058-0.127,1.702-0.127
		c0.467,0,0.858,0.062,1.176,0.189c0.317,0.125,0.584,0.311,0.799,0.553c0.065-0.047,0.168-0.111,0.308-0.195
		c0.141-0.084,0.313-0.166,0.519-0.246c0.205-0.078,0.435-0.148,0.687-0.209s0.522-0.092,0.812-0.092
		c0.56,0,1.018,0.082,1.372,0.246c0.354,0.162,0.633,0.395,0.833,0.691c0.201,0.301,0.337,0.654,0.406,1.064
		c0.07,0.412,0.105,0.859,0.105,1.346v4.09h-1.303v-3.811c0-0.43-0.021-0.797-0.062-1.105s-0.122-0.564-0.238-0.771
		c-0.117-0.205-0.275-0.355-0.477-0.455c-0.201-0.098-0.46-0.146-0.777-0.146c-0.438,0-0.801,0.059-1.085,0.176
		c-0.285,0.117-0.479,0.221-0.581,0.314c0.074,0.242,0.13,0.51,0.168,0.799c0.037,0.289,0.056,0.592,0.056,0.91v4.09h-1.303v-3.811
		c0-0.43-0.023-0.797-0.069-1.105c-0.047-0.309-0.129-0.564-0.245-0.771c-0.117-0.205-0.276-0.355-0.477-0.455
		c-0.201-0.098-0.455-0.146-0.764-0.146c-0.131,0-0.271,0.006-0.42,0.014c-0.149,0.01-0.292,0.021-0.427,0.035
		c-0.136,0.014-0.26,0.031-0.371,0.049c-0.112,0.02-0.188,0.033-0.225,0.043V25.2h-1.303V18.126z"/>
</g>
<g>
	<g>
		<path fill="#FFFFFF" d="M139.037,22.428v-4.329h6.713V11.3h4.304v6.799h6.711v4.329h-6.711v6.832h-4.304v-6.832H139.037z"/>
	</g>
</g>
<g>
	<path fill="#8377AF" d="M338.334,20.601c0,10.978-8.982,19.959-19.959,19.959h-145.78c-1.893,0-3.428-1.535-3.428-3.428V3.428
		c0-1.893,1.535-3.428,3.428-3.428h145.543c11.108,0,20.196,9.088,20.196,20.196V20.601z"/>
</g>
<g>
	<path fill="#FFFFFF" d="M181.924,24.233c1.42,0,2.129-0.486,2.129-1.457c0-0.299-0.062-0.553-0.188-0.764
		c-0.126-0.209-0.297-0.391-0.512-0.545s-0.46-0.287-0.735-0.4c-0.275-0.111-0.567-0.223-0.875-0.336
		c-0.355-0.121-0.691-0.258-1.009-0.412s-0.593-0.336-0.826-0.547s-0.418-0.459-0.553-0.75c-0.136-0.289-0.203-0.639-0.203-1.049
		c0-0.85,0.289-1.514,0.868-1.99c0.579-0.475,1.377-0.713,2.395-0.713c0.589,0,1.123,0.062,1.604,0.188
		c0.481,0.127,0.834,0.266,1.058,0.414l-0.434,1.105c-0.196-0.121-0.488-0.24-0.876-0.355c-0.388-0.117-0.838-0.176-1.352-0.176
		c-0.261,0-0.504,0.027-0.728,0.084c-0.225,0.057-0.421,0.141-0.589,0.252s-0.301,0.254-0.398,0.428
		c-0.099,0.172-0.147,0.375-0.147,0.609c0,0.262,0.051,0.48,0.154,0.658c0.103,0.178,0.247,0.334,0.434,0.469
		s0.404,0.26,0.651,0.371s0.521,0.225,0.819,0.336c0.42,0.168,0.806,0.336,1.155,0.504c0.351,0.168,0.653,0.369,0.911,0.604
		c0.256,0.232,0.455,0.51,0.595,0.832s0.21,0.713,0.21,1.17c0,0.85-0.311,1.504-0.932,1.961c-0.62,0.457-1.496,0.686-2.626,0.686
		c-0.383,0-0.735-0.025-1.057-0.076c-0.322-0.051-0.609-0.111-0.861-0.182c-0.253-0.07-0.47-0.145-0.651-0.225
		c-0.183-0.08-0.325-0.146-0.428-0.203l0.406-1.121c0.215,0.121,0.542,0.258,0.98,0.406
		C180.752,24.159,181.289,24.233,181.924,24.233z"/>
	<path fill="#FFFFFF" d="M192.835,24.989c-0.299,0.076-0.693,0.154-1.184,0.238s-1.058,0.127-1.702,0.127
		c-0.56,0-1.031-0.082-1.414-0.246c-0.383-0.162-0.691-0.395-0.925-0.693s-0.401-0.65-0.504-1.057s-0.154-0.857-0.154-1.352v-4.09
		h1.303v3.809c0,0.889,0.14,1.523,0.42,1.906s0.752,0.574,1.415,0.574c0.14,0,0.284-0.006,0.434-0.016
		c0.149-0.008,0.29-0.02,0.421-0.033c0.13-0.016,0.249-0.029,0.356-0.043s0.185-0.029,0.231-0.049v-6.148h1.303V24.989z"/>
	<path fill="#FFFFFF" d="M196.378,18.239c0.159-0.104,0.399-0.211,0.722-0.322s0.693-0.168,1.113-0.168
		c0.522,0,0.987,0.094,1.394,0.279c0.406,0.188,0.749,0.449,1.029,0.785s0.492,0.738,0.638,1.205
		c0.145,0.467,0.217,0.979,0.217,1.539c0,0.59-0.087,1.119-0.259,1.59c-0.174,0.473-0.418,0.871-0.735,1.197
		c-0.318,0.328-0.701,0.58-1.148,0.758c-0.448,0.176-0.953,0.266-1.513,0.266c-0.607,0-1.145-0.043-1.611-0.127
		s-0.85-0.168-1.148-0.252V14.555l1.303-0.225V18.239z M196.378,24.065c0.131,0.037,0.315,0.072,0.554,0.105
		c0.237,0.031,0.534,0.049,0.889,0.049c0.7,0,1.261-0.232,1.681-0.693c0.421-0.463,0.631-1.119,0.631-1.969
		c0-0.373-0.038-0.723-0.112-1.049c-0.075-0.328-0.196-0.609-0.364-0.848s-0.385-0.426-0.651-0.561
		c-0.266-0.135-0.586-0.203-0.959-0.203c-0.355,0-0.682,0.061-0.98,0.182s-0.527,0.248-0.687,0.379V24.065z"/>
	<path fill="#FFFFFF" d="M203.324,18.126c0.299-0.074,0.693-0.152,1.184-0.236s1.058-0.127,1.702-0.127
		c0.467,0,0.858,0.062,1.176,0.189c0.317,0.125,0.584,0.311,0.799,0.553c0.065-0.047,0.168-0.111,0.308-0.195
		c0.141-0.084,0.313-0.166,0.519-0.246c0.205-0.078,0.435-0.148,0.687-0.209s0.522-0.092,0.812-0.092
		c0.56,0,1.018,0.082,1.372,0.246c0.354,0.162,0.633,0.395,0.833,0.691c0.201,0.301,0.337,0.654,0.406,1.064
		c0.07,0.412,0.105,0.859,0.105,1.346v4.09h-1.303v-3.811c0-0.43-0.021-0.797-0.062-1.105s-0.122-0.564-0.238-0.771
		c-0.117-0.205-0.275-0.355-0.477-0.455c-0.201-0.098-0.46-0.146-0.777-0.146c-0.438,0-0.801,0.059-1.085,0.176
		c-0.285,0.117-0.479,0.221-0.581,0.314c0.074,0.242,0.13,0.51,0.168,0.799c0.037,0.289,0.056,0.592,0.056,0.91v4.09h-1.303v-3.811
		c0-0.43-0.023-0.797-0.069-1.105c-0.047-0.309-0.129-0.564-0.245-0.771c-0.117-0.205-0.276-0.355-0.477-0.455
		c-0.201-0.098-0.455-0.146-0.764-0.146c-0.131,0-0.271,0.006-0.42,0.014c-0.149,0.01-0.292,0.021-0.427,0.035
		c-0.136,0.014-0.26,0.031-0.371,0.049c-0.112,0.02-0.188,0.033-0.225,0.043V25.2h-1.303V18.126z"/>
	<path fill="#FFFFFF" d="M216.027,16.6c-0.233,0-0.432-0.078-0.595-0.23c-0.164-0.154-0.245-0.363-0.245-0.625
		c0-0.26,0.081-0.469,0.245-0.623c0.163-0.154,0.361-0.23,0.595-0.23s0.432,0.076,0.596,0.23c0.163,0.154,0.245,0.363,0.245,0.623
		c0,0.262-0.082,0.471-0.245,0.625C216.459,16.522,216.261,16.6,216.027,16.6z M216.685,25.2h-1.303v-7.283h1.303V25.2z"/>
	<path fill="#FFFFFF" d="M220.144,17.917h2.759v1.092h-2.759v3.361c0,0.365,0.028,0.666,0.084,0.904s0.141,0.424,0.252,0.561
		c0.112,0.135,0.252,0.23,0.421,0.287c0.168,0.055,0.363,0.084,0.588,0.084c0.392,0,0.707-0.045,0.945-0.135
		c0.238-0.088,0.403-0.15,0.497-0.188l0.252,1.078c-0.131,0.064-0.359,0.146-0.687,0.244c-0.326,0.1-0.7,0.148-1.12,0.148
		c-0.495,0-0.903-0.064-1.226-0.189c-0.322-0.127-0.581-0.316-0.777-0.568s-0.334-0.562-0.413-0.93
		c-0.079-0.369-0.119-0.797-0.119-1.283v-6.498l1.303-0.225V17.917z"/>
	<path fill="#FFFFFF" d="M230.144,17.735c0.522,0,0.964,0.066,1.323,0.203c0.359,0.135,0.648,0.326,0.868,0.574
		c0.22,0.246,0.376,0.541,0.47,0.881c0.093,0.342,0.14,0.717,0.14,1.129v4.551c-0.112,0.02-0.269,0.045-0.469,0.078
		c-0.201,0.031-0.428,0.062-0.68,0.09c-0.252,0.029-0.525,0.055-0.819,0.078s-0.586,0.035-0.875,0.035
		c-0.411,0-0.789-0.043-1.135-0.127s-0.645-0.217-0.896-0.398s-0.448-0.424-0.588-0.723c-0.141-0.299-0.21-0.658-0.21-1.078
		c0-0.4,0.081-0.746,0.245-1.035c0.163-0.289,0.385-0.523,0.665-0.701s0.606-0.309,0.98-0.393c0.373-0.084,0.766-0.125,1.177-0.125
		c0.13,0,0.266,0.006,0.405,0.021c0.141,0.014,0.273,0.031,0.399,0.055s0.236,0.045,0.329,0.062c0.094,0.02,0.159,0.033,0.196,0.043
		v-0.363c0-0.215-0.023-0.428-0.07-0.639c-0.047-0.209-0.131-0.396-0.252-0.561c-0.121-0.162-0.287-0.293-0.497-0.391
		c-0.21-0.1-0.483-0.148-0.819-0.148c-0.43,0-0.806,0.031-1.127,0.092c-0.322,0.061-0.563,0.123-0.722,0.189l-0.154-1.078
		c0.168-0.076,0.448-0.148,0.841-0.219C229.262,17.77,229.686,17.735,230.144,17.735z M230.256,24.26
		c0.309,0,0.582-0.006,0.819-0.02c0.238-0.016,0.437-0.041,0.596-0.078v-2.17c-0.094-0.047-0.245-0.088-0.455-0.119
		c-0.21-0.033-0.465-0.049-0.764-0.049c-0.196,0-0.403,0.014-0.623,0.041s-0.42,0.086-0.603,0.176
		c-0.182,0.088-0.334,0.209-0.455,0.363s-0.182,0.357-0.182,0.609c0,0.467,0.149,0.791,0.448,0.973
		C229.337,24.171,229.743,24.26,230.256,24.26z"/>
	<path fill="#FFFFFF" d="M243.169,21.137c0.149,0.188,0.339,0.432,0.567,0.736c0.229,0.303,0.465,0.639,0.707,1.008
		c0.243,0.369,0.483,0.754,0.722,1.156c0.238,0.4,0.441,0.789,0.609,1.162h-1.484c-0.188-0.355-0.391-0.715-0.609-1.078
		c-0.22-0.365-0.441-0.713-0.666-1.045c-0.224-0.33-0.445-0.641-0.665-0.93c-0.22-0.291-0.418-0.543-0.595-0.758
		c-0.122,0.01-0.245,0.014-0.371,0.014s-0.255,0-0.386,0h-1.218V25.2h-1.359v-9.566c0.383-0.094,0.811-0.156,1.282-0.189
		c0.471-0.031,0.903-0.049,1.295-0.049c1.363,0,2.402,0.258,3.116,0.771c0.715,0.514,1.071,1.279,1.071,2.297
		c0,0.643-0.17,1.195-0.511,1.652S243.832,20.913,243.169,21.137z M241.11,16.587c-0.579,0-1.022,0.014-1.33,0.041v3.656h0.966
		c0.467,0,0.887-0.023,1.261-0.07c0.373-0.047,0.688-0.135,0.945-0.266s0.455-0.316,0.595-0.555
		c0.141-0.236,0.211-0.553,0.211-0.945c0-0.363-0.07-0.666-0.211-0.91c-0.14-0.242-0.329-0.434-0.566-0.574
		c-0.238-0.139-0.519-0.238-0.841-0.293C241.817,16.614,241.475,16.587,241.11,16.587z"/>
	<path fill="#FFFFFF" d="M246.74,21.571c0-0.643,0.094-1.205,0.28-1.688c0.187-0.48,0.435-0.879,0.742-1.197
		c0.309-0.316,0.663-0.555,1.064-0.713c0.401-0.16,0.812-0.238,1.232-0.238c0.98,0,1.732,0.305,2.255,0.916
		c0.523,0.613,0.785,1.543,0.785,2.795c0,0.057,0,0.129,0,0.217c0,0.09-0.005,0.17-0.015,0.246H248.1
		c0.056,0.756,0.274,1.33,0.658,1.723c0.383,0.391,0.98,0.588,1.792,0.588c0.458,0,0.843-0.039,1.156-0.119
		c0.312-0.08,0.548-0.156,0.707-0.23l0.182,1.092c-0.158,0.084-0.437,0.172-0.833,0.266c-0.397,0.094-0.848,0.141-1.352,0.141
		c-0.635,0-1.184-0.096-1.646-0.287s-0.843-0.455-1.142-0.791s-0.521-0.736-0.665-1.197C246.812,22.63,246.74,22.124,246.74,21.571z
		 M251.74,20.858c0.01-0.588-0.138-1.072-0.44-1.449c-0.304-0.379-0.722-0.568-1.254-0.568c-0.299,0-0.562,0.059-0.791,0.176
		c-0.229,0.117-0.423,0.268-0.581,0.455c-0.159,0.188-0.283,0.4-0.371,0.645c-0.089,0.242-0.147,0.49-0.176,0.742H251.74z"/>
	<path fill="#FFFFFF" d="M256.671,24.26c0.532,0,0.926-0.07,1.184-0.209c0.256-0.141,0.385-0.365,0.385-0.672
		c0-0.318-0.126-0.57-0.378-0.758c-0.252-0.186-0.668-0.396-1.247-0.629c-0.28-0.113-0.548-0.227-0.805-0.344
		s-0.479-0.254-0.666-0.414c-0.187-0.158-0.336-0.35-0.447-0.574c-0.112-0.223-0.169-0.498-0.169-0.826
		c0-0.645,0.238-1.154,0.715-1.533c0.476-0.379,1.125-0.566,1.946-0.566c0.206,0,0.411,0.012,0.616,0.035
		c0.206,0.023,0.397,0.051,0.574,0.084c0.178,0.031,0.334,0.066,0.47,0.104c0.135,0.039,0.24,0.07,0.315,0.1l-0.238,1.119
		c-0.141-0.074-0.359-0.15-0.658-0.23s-0.658-0.119-1.079-0.119c-0.364,0-0.682,0.072-0.952,0.217s-0.406,0.371-0.406,0.68
		c0,0.158,0.03,0.299,0.091,0.42s0.154,0.23,0.28,0.33c0.126,0.098,0.282,0.188,0.47,0.271c0.187,0.084,0.41,0.174,0.672,0.268
		c0.346,0.131,0.653,0.258,0.925,0.385c0.271,0.125,0.501,0.273,0.693,0.441c0.19,0.168,0.338,0.371,0.44,0.609
		s0.154,0.529,0.154,0.875c0,0.672-0.25,1.182-0.749,1.525c-0.5,0.346-1.212,0.52-2.136,0.52c-0.645,0-1.148-0.055-1.513-0.162
		s-0.612-0.188-0.742-0.244l0.237-1.121c0.149,0.057,0.388,0.141,0.715,0.252C255.694,24.206,256.129,24.26,256.671,24.26z"/>
	<path fill="#FFFFFF" d="M262.44,17.917h2.759v1.092h-2.759v3.361c0,0.365,0.028,0.666,0.084,0.904s0.141,0.424,0.252,0.561
		c0.112,0.135,0.252,0.23,0.421,0.287c0.168,0.055,0.363,0.084,0.588,0.084c0.392,0,0.707-0.045,0.945-0.135
		c0.238-0.088,0.403-0.15,0.497-0.188l0.252,1.078c-0.131,0.064-0.359,0.146-0.687,0.244c-0.326,0.1-0.7,0.148-1.12,0.148
		c-0.495,0-0.903-0.064-1.226-0.189c-0.322-0.127-0.581-0.316-0.777-0.568s-0.334-0.562-0.413-0.93
		c-0.079-0.369-0.119-0.797-0.119-1.283v-6.498l1.303-0.225V17.917z"/>
	<path fill="#FFFFFF" d="M269.541,17.762c0.112,0,0.24,0.008,0.385,0.021s0.287,0.033,0.428,0.055
		c0.14,0.023,0.268,0.047,0.385,0.07s0.203,0.045,0.259,0.064l-0.224,1.133c-0.103-0.037-0.273-0.08-0.511-0.133
		c-0.238-0.051-0.545-0.076-0.918-0.076c-0.243,0-0.483,0.025-0.721,0.076c-0.238,0.053-0.395,0.088-0.47,0.105V25.2h-1.303v-6.975
		c0.309-0.113,0.691-0.217,1.148-0.316C268.458,17.811,268.972,17.762,269.541,17.762z"/>
	<path fill="#FFFFFF" d="M278.686,21.557c0,0.58-0.084,1.102-0.252,1.568c-0.168,0.469-0.404,0.869-0.707,1.205
		c-0.304,0.336-0.665,0.596-1.086,0.777c-0.42,0.182-0.878,0.273-1.372,0.273c-0.495,0-0.952-0.092-1.373-0.273
		c-0.42-0.182-0.782-0.441-1.085-0.777c-0.304-0.336-0.539-0.736-0.707-1.205c-0.169-0.467-0.253-0.988-0.253-1.568
		c0-0.568,0.084-1.09,0.253-1.561c0.168-0.473,0.403-0.875,0.707-1.211c0.303-0.338,0.665-0.596,1.085-0.777
		c0.421-0.184,0.878-0.273,1.373-0.273c0.494,0,0.952,0.09,1.372,0.273c0.421,0.182,0.782,0.439,1.086,0.777
		c0.303,0.336,0.539,0.738,0.707,1.211C278.602,20.467,278.686,20.989,278.686,21.557z M277.328,21.557
		c0-0.82-0.185-1.473-0.553-1.953c-0.369-0.48-0.871-0.721-1.506-0.721c-0.636,0-1.137,0.24-1.506,0.721s-0.553,1.133-0.553,1.953
		c0,0.822,0.184,1.475,0.553,1.955s0.87,0.721,1.506,0.721c0.635,0,1.137-0.24,1.506-0.721
		C277.143,23.032,277.328,22.38,277.328,21.557z"/>
	<path fill="#FFFFFF" d="M286.95,21.557c0,0.58-0.084,1.102-0.252,1.568c-0.168,0.469-0.404,0.869-0.707,1.205
		c-0.304,0.336-0.665,0.596-1.086,0.777c-0.42,0.182-0.878,0.273-1.372,0.273c-0.495,0-0.952-0.092-1.373-0.273
		c-0.42-0.182-0.782-0.441-1.085-0.777c-0.304-0.336-0.539-0.736-0.707-1.205c-0.169-0.467-0.253-0.988-0.253-1.568
		c0-0.568,0.084-1.09,0.253-1.561c0.168-0.473,0.403-0.875,0.707-1.211c0.303-0.338,0.665-0.596,1.085-0.777
		c0.421-0.184,0.878-0.273,1.373-0.273c0.494,0,0.952,0.09,1.372,0.273c0.421,0.182,0.782,0.439,1.086,0.777
		c0.303,0.336,0.539,0.738,0.707,1.211C286.866,20.467,286.95,20.989,286.95,21.557z M285.592,21.557
		c0-0.82-0.185-1.473-0.553-1.953c-0.369-0.48-0.871-0.721-1.506-0.721c-0.636,0-1.137,0.24-1.506,0.721s-0.553,1.133-0.553,1.953
		c0,0.822,0.184,1.475,0.553,1.955s0.87,0.721,1.506,0.721c0.635,0,1.137-0.24,1.506-0.721
		C285.407,23.032,285.592,22.38,285.592,21.557z"/>
	<path fill="#FFFFFF" d="M288.785,18.126c0.299-0.074,0.693-0.152,1.184-0.236s1.058-0.127,1.702-0.127
		c0.467,0,0.858,0.062,1.176,0.189c0.317,0.125,0.584,0.311,0.799,0.553c0.065-0.047,0.168-0.111,0.308-0.195
		c0.141-0.084,0.313-0.166,0.519-0.246c0.205-0.078,0.435-0.148,0.687-0.209s0.522-0.092,0.812-0.092
		c0.56,0,1.018,0.082,1.372,0.246c0.354,0.162,0.633,0.395,0.833,0.691c0.201,0.301,0.337,0.654,0.406,1.064
		c0.07,0.412,0.105,0.859,0.105,1.346v4.09h-1.303v-3.811c0-0.43-0.021-0.797-0.062-1.105s-0.122-0.564-0.238-0.771
		c-0.117-0.205-0.275-0.355-0.477-0.455c-0.201-0.098-0.46-0.146-0.777-0.146c-0.438,0-0.801,0.059-1.085,0.176
		c-0.285,0.117-0.479,0.221-0.581,0.314c0.074,0.242,0.13,0.51,0.168,0.799c0.037,0.289,0.056,0.592,0.056,0.91v4.09h-1.303v-3.811
		c0-0.43-0.023-0.797-0.069-1.105c-0.047-0.309-0.129-0.564-0.245-0.771c-0.117-0.205-0.276-0.355-0.477-0.455
		c-0.201-0.098-0.455-0.146-0.764-0.146c-0.131,0-0.271,0.006-0.42,0.014c-0.149,0.01-0.292,0.021-0.427,0.035
		c-0.136,0.014-0.26,0.031-0.371,0.049c-0.112,0.02-0.188,0.033-0.225,0.043V25.2h-1.303V18.126z"/>
</g>
<g>
	<g>
		<path fill="#FFFFFF" d="M308.204,22.428v-4.329h6.712V11.3h4.304v6.799h6.711v4.329h-6.711v6.832h-4.304v-6.832H308.204z"/>
	</g>
</g>
</svg>
