<?xml version="1.0" encoding="utf-8"?>
<!-- Generator: Adobe Illustrator 24.0.1, SVG Export Plug-In . SVG Version: 6.00 Build 0)  -->
<svg version="1.1" id="Layer_1" xmlns="http://www.w3.org/2000/svg" xmlns:xlink="http://www.w3.org/1999/xlink" x="0px" y="0px"
	 viewBox="0 0 100 100" style="enable-background:new 0 0 100 100;" xml:space="preserve">
<style type="text/css">
	.st0{fill:#3A2869;}
</style>
<g>
	<path class="st0" d="M72.3,39.5h-45c-2.5,0-4.4-2-4.4-4.4L21.2,5.2c0-2.5,2-4.4,4.4-4.4h48.3c2.5,0,4.4,2,4.4,4.4L76.7,35
		C76.7,37.5,74.8,39.5,72.3,39.5z"/>
	<path class="st0" d="M66.7,94.7c-0.1,2.4-2,4.3-4.3,4.3H37.1c-2.3,0-4.1-1.9-4.3-4.3c0-0.1,0-0.3,0-0.5l2-16.2
		c4.3,2.8,9.5,4.4,15,4.4c5.6,0,10.8-1.7,15.2-4.5l1.7,16.4C66.7,94.4,66.7,94.6,66.7,94.7z"/>
	<path class="st0" d="M49.8,43c-15.2,0-27.6,3.5-27.8,7.9c0.1,9.7,5.2,18.2,12.8,23c4.3,2.8,9.5,4.4,15,4.4c5.6,0,10.8-1.7,15.2-4.5
		c7.5-4.9,12.5-13.3,12.6-22.9C77.4,46.5,65,43,49.8,43z M49.8,55c-11,0-19.9-1.8-19.9-4s8.9-4,19.9-4s19.9,1.8,19.9,4
		S60.8,55,49.8,55z"/>
</g>
</svg>
