<?xml version="1.0" encoding="utf-8"?>
<!-- Generator: Adobe Illustrator 17.1.0, SVG Export Plug-In . SVG Version: 6.00 Build 0)  -->
<!DOCTYPE svg PUBLIC "-//W3C//DTD SVG 1.1 Tiny//EN" "http://www.w3.org/Graphics/SVG/1.1/DTD/svg11-tiny.dtd">
<svg version="1.1" baseProfile="tiny" id="Layer_1" xmlns="http://www.w3.org/2000/svg" xmlns:xlink="http://www.w3.org/1999/xlink"
	 x="0px" y="0px" viewBox="0 0 137.832 34" xml:space="preserve">
<g>
	<path fill="#41326B" d="M137.832,31c0,1.657-1.343,3-3,3h-63c-1.657,0-3-1.343-3-3V3c0-1.657,1.343-3,3-3h63c1.657,0,3,1.343,3,3
		V31z"/>
</g>
<g>
	<path fill="#FFFFFF" d="M116.436,18.301c0,0.992-0.144,1.889-0.432,2.688s-0.692,1.487-1.212,2.063
		c-0.521,0.576-1.14,1.021-1.86,1.332c-0.72,0.312-1.504,0.468-2.352,0.468c-0.849,0-1.632-0.155-2.353-0.468
		c-0.72-0.312-1.34-0.756-1.859-1.332c-0.521-0.576-0.925-1.264-1.213-2.063c-0.287-0.8-0.432-1.696-0.432-2.688
		c0-0.976,0.145-1.867,0.432-2.676c0.288-0.808,0.692-1.5,1.213-2.076c0.52-0.576,1.14-1.02,1.859-1.332
		c0.721-0.312,1.504-0.468,2.353-0.468c0.848,0,1.632,0.156,2.352,0.468c0.721,0.312,1.34,0.756,1.86,1.332
		c0.52,0.576,0.924,1.269,1.212,2.076C116.292,16.433,116.436,17.325,116.436,18.301z M114.109,18.301
		c0-1.407-0.316-2.523-0.948-3.348c-0.633-0.824-1.492-1.236-2.58-1.236s-1.948,0.412-2.58,1.236s-0.948,1.94-0.948,3.348
		c0,1.408,0.316,2.524,0.948,3.349s1.492,1.235,2.58,1.235s1.947-0.411,2.58-1.235C113.792,20.825,114.109,19.709,114.109,18.301z"
		/>
	<path fill="#FFFFFF" d="M119.581,12.421c0.512-0.128,1.191-0.264,2.04-0.408c0.848-0.144,1.824-0.216,2.928-0.216
		c0.992,0,1.816,0.141,2.473,0.42c0.655,0.28,1.18,0.672,1.571,1.176c0.393,0.504,0.668,1.108,0.828,1.812s0.24,1.48,0.24,2.328
		v7.008h-2.232v-6.528c0-0.768-0.052-1.424-0.155-1.968c-0.104-0.544-0.276-0.983-0.517-1.32c-0.239-0.336-0.56-0.58-0.96-0.732
		c-0.399-0.152-0.896-0.228-1.487-0.228c-0.24,0-0.488,0.008-0.744,0.024c-0.257,0.016-0.501,0.036-0.732,0.06
		c-0.232,0.024-0.44,0.052-0.624,0.084c-0.184,0.032-0.316,0.056-0.396,0.072v10.536h-2.232V12.421z"/>
</g>
<g>
	<path fill="#8377AF" d="M69,31c0,1.657-1.343,3-3,3H3c-1.657,0-3-1.343-3-3V3c0-1.657,1.343-3,3-3h63c1.657,0,3,1.343,3,3V31z"/>
</g>
<g>
	<path fill="#FFFFFF" d="M42.436,18.301c0,0.992-0.144,1.889-0.432,2.688s-0.692,1.487-1.212,2.063
		c-0.521,0.576-1.14,1.021-1.86,1.332c-0.72,0.312-1.504,0.468-2.352,0.468c-0.849,0-1.632-0.155-2.353-0.468
		c-0.72-0.312-1.34-0.756-1.859-1.332c-0.521-0.576-0.925-1.264-1.213-2.063c-0.287-0.8-0.432-1.696-0.432-2.688
		c0-0.976,0.145-1.867,0.432-2.676c0.288-0.808,0.692-1.5,1.213-2.076c0.52-0.576,1.14-1.02,1.859-1.332
		c0.721-0.312,1.504-0.468,2.353-0.468c0.848,0,1.632,0.156,2.352,0.468c0.721,0.312,1.34,0.756,1.86,1.332
		c0.52,0.576,0.924,1.269,1.212,2.076C42.292,16.433,42.436,17.325,42.436,18.301z M40.109,18.301c0-1.407-0.316-2.523-0.948-3.348
		c-0.633-0.824-1.492-1.236-2.58-1.236s-1.948,0.412-2.58,1.236s-0.948,1.94-0.948,3.348c0,1.408,0.316,2.524,0.948,3.349
		s1.492,1.235,2.58,1.235s1.947-0.411,2.58-1.235C39.792,20.825,40.109,19.709,40.109,18.301z"/>
	<path fill="#FFFFFF" d="M50.453,5.917c0.656,0,1.22,0.048,1.692,0.144c0.472,0.096,0.804,0.184,0.996,0.264l-0.408,1.92
		c-0.192-0.096-0.465-0.188-0.816-0.276s-0.784-0.132-1.296-0.132c-1.04,0-1.769,0.284-2.184,0.852
		c-0.417,0.568-0.624,1.332-0.624,2.292v1.08h4.8v1.872h-4.8v10.608h-2.232V10.933c0-1.6,0.392-2.836,1.176-3.708
		S48.773,5.917,50.453,5.917z M59.813,5.917c0.655,0,1.22,0.048,1.691,0.144s0.805,0.184,0.996,0.264l-0.408,1.92
		c-0.191-0.096-0.464-0.188-0.815-0.276c-0.353-0.088-0.784-0.132-1.296-0.132c-1.041,0-1.769,0.284-2.185,0.852
		c-0.416,0.568-0.624,1.332-0.624,2.292v1.08h4.8v1.872h-4.8v10.608h-2.231V10.933c0-1.6,0.392-2.836,1.176-3.708
		S58.132,5.917,59.813,5.917z"/>
</g>
<g>
	<g>
		<path fill="#FFFFFF" d="M25.449,4.152c-0.249,0.429-0.497,0.859-0.785,1.356c0.657,0,1.23,0,1.765,0
			c-1.149,1.142-2.295,2.28-3.465,3.443c-1.286-0.938-2.868-1.493-4.582-1.493c-1.779,0-3.417,0.598-4.728,1.602
			c-0.26-0.301-0.539-0.623-0.872-1.009c0.402-0.353,0.869-0.764,1.343-1.18c-0.474-0.474-0.848-0.848-1.256-1.256
			c-0.424,0.447-0.843,0.89-1.249,1.318c-0.485-0.508-0.916-0.96-1.339-1.403c0.496,0,1.076,0,1.754,0
			c-0.301-0.519-0.549-0.948-0.798-1.378c-1.363,0-2.725,0-4.088,0c0,1.363,0,2.725,0,4.088C7.58,8.489,8.009,8.738,8.507,9.026
			c0-0.657,0-1.229,0-1.847c0.464,0.497,0.885,0.949,1.327,1.422C9.461,8.936,9.008,9.344,8.593,9.719
			c0.476,0.485,0.852,0.87,1.267,1.292c0.373-0.395,0.793-0.838,1.23-1.301c0.35,0.364,0.646,0.673,0.963,1.003
			c-0.005,0.007-0.01,0.015-0.014,0.022c-0.905,1.272-1.439,2.826-1.439,4.506c0,3.917,2.893,7.157,6.659,7.702
			c0,0.667,0,1.321,0,2.023c-0.856,0-1.705,0-2.582,0c0,0.759,0,1.465,0,2.225c0.834,0,1.683,0,2.597,0c0,0.919,0,1.787,0,2.655
			c0.746,0,1.492,0,2.239,0c0-0.857,0-1.713,0-2.623c0.881,0,1.73,0,2.602,0c0-0.76,0-1.467,0-2.228c-0.851,0-1.7,0-2.576,0
			c0-0.72,0-1.389,0-2.056c3.751-0.558,6.629-3.792,6.629-7.698c0-1.678-0.533-3.23-1.435-4.501
			c1.156-1.156,2.303-2.303,3.426-3.426c0,0.463,0,1.045,0,1.724c0.52-0.301,0.95-0.55,1.379-0.799c0-1.363,0-2.725,0-4.088
			C28.175,4.152,26.812,4.152,25.449,4.152z M18.383,20.816c-3.074,0-5.574-2.501-5.574-5.574c0-3.074,2.501-5.574,5.574-5.574
			c3.074,0,5.574,2.501,5.574,5.574C23.957,18.316,21.456,20.816,18.383,20.816z"/>
	</g>
</g>
<g>
	<g>
		<path fill="#FFFFFF" d="M94.281,4.152c-0.249,0.429-0.497,0.859-0.785,1.356c0.657,0,1.23,0,1.765,0
			c-1.149,1.142-2.295,2.28-3.465,3.443c-1.286-0.938-2.868-1.493-4.582-1.493c-1.779,0-3.417,0.598-4.728,1.602
			c-0.26-0.301-0.539-0.623-0.872-1.009c0.402-0.353,0.869-0.764,1.343-1.18c-0.474-0.474-0.848-0.848-1.256-1.256
			c-0.424,0.447-0.843,0.89-1.249,1.318c-0.485-0.508-0.916-0.96-1.339-1.403c0.496,0,1.076,0,1.754,0
			c-0.301-0.519-0.549-0.948-0.798-1.378c-1.363,0-2.725,0-4.088,0c0,1.363,0,2.725,0,4.088c0.429,0.249,0.859,0.497,1.356,0.786
			c0-0.657,0-1.229,0-1.847c0.464,0.497,0.885,0.949,1.327,1.422c-0.372,0.335-0.825,0.743-1.241,1.118
			c0.476,0.485,0.852,0.87,1.266,1.292c0.373-0.395,0.793-0.838,1.23-1.301c0.35,0.364,0.646,0.673,0.963,1.003
			c-0.005,0.007-0.01,0.015-0.014,0.022c-0.905,1.272-1.439,2.826-1.439,4.506c0,3.917,2.893,7.157,6.659,7.702
			c0,0.667,0,1.321,0,2.023c-0.856,0-1.705,0-2.582,0c0,0.759,0,1.465,0,2.225c0.834,0,1.683,0,2.597,0c0,0.919,0,1.787,0,2.655
			c0.746,0,1.492,0,2.239,0c0-0.857,0-1.713,0-2.623c0.881,0,1.73,0,2.602,0c0-0.76,0-1.467,0-2.228c-0.851,0-1.7,0-2.576,0
			c0-0.72,0-1.389,0-2.056c3.751-0.558,6.629-3.792,6.629-7.698c0-1.678-0.533-3.23-1.435-4.501
			c1.156-1.156,2.303-2.303,3.426-3.426c0,0.463,0,1.045,0,1.724c0.52-0.301,0.95-0.55,1.379-0.799c0-1.363,0-2.725,0-4.088
			C97.006,4.152,95.644,4.152,94.281,4.152z M87.215,20.816c-3.074,0-5.574-2.501-5.574-5.574c0-3.074,2.501-5.574,5.574-5.574
			c3.074,0,5.574,2.501,5.574,5.574C92.789,18.316,90.288,20.816,87.215,20.816z"/>
	</g>
</g>
</svg>
